  0
SECTION
  2
HEADER
  9
$ACADVER
  1
AC1009
  9
$INSBASE
 10
0.0
 20
0.0
 30
0.0
  9
$EXTMIN
 10
0.0
 20
0.0
 30
0.0
  9
$EXTMAX
 10
0.0
 20
0.0
 30
0.0
  0
ENDSEC
  0
SECTION
  2
TABLES
  0
TABLE
  2
VPORT
 70
1
  0
VPORT
  2
*ACTIVE
 70
0
 10
0.0
 20
0.0
 11
1.0
 21
1.0
 12
-5.0
 22
1.0
 13
0.0
 23
0.0
 14
0.1
 24
0.1
 15
0.1
 25
0.1
 16
0.0
 26
0.0
 36
1.0
 17
0.0
 27
0.0
 37
0.0
 40
10.0
 41
1.0
 42
50.0
 43
0.0
 44
0.0
 50
0.0
 51
0.0
 71
0
 72
100
 73
1
 74
1
 75
0
 76
0
 77
0
 78
0
  0
ENDTAB
  0
TABLE
  2
LTYPE
 70
8
  0
LTYPE
  2
CONTINUOUS
 70
0
  3
Solid line
 72
65
 73
0
 40
0.0
  0
LTYPE
  2
DOT
 70
0
  3
. . . . . . .
 72
65
 73
2
 40
0.25
 49
0.0
 49
-0.25
  0
LTYPE
  2
DASHED
 70
0
  3
__ __ __ __ __
 72
65
 73
2
 40
0.8
 49
0.5
 49
-0.3
  0
LTYPE
  2
DASHDOT
 70
0
  3
__ . __ . __ .
 72
65
 73
4
 40
1.0
 49
0.5
 49
-0.25
 49
0.0
 49
-0.25
  0
LTYPE
  2
DIVIDE
 70
0
  3
____ . . ____ . . 
 72
65
 73
6
 40
1.25
 49
0.5
 49
-0.25
 49
0.0
 49
-0.25
 49
0.0
 49
-0.25
  0
LTYPE
  2
BORDER
 70
0
  3
__ __ . __ __ . 
 72
65
 73
6
 40
1.75
 49
0.5
 49
-0.25
 49
0.5
 49
-0.25
 49
0.0
 49
-0.25
  0
LTYPE
  2
HIDDEN
 70
0
  3
__ __ __ __ __
 72
65
 73
2
 40
0.4
 49
0.25
 49
-0.25
  0
LTYPE
  2
CENTER
 70
0
  3
____ _ ____ _ __
 72
65
 73
4
 40
2.0
 49
1.25
 49
-0.25
 49
0.25
 49
-0.25
  0
ENDTAB
  0
TABLE
  2
LAYER
 70
1
  0
LAYER
  2
PYDXF
 70
64
 62
7
  6
continuous
  0
ENDTAB
  0
TABLE
  2
STYLE
 70
1
  0
STYLE
  2
STANDARD
 70
0
 40
0
 41
1.0
 50
0.0
 71
0
 42
1
 3
ARIAL.TTF
 4

  0
ENDTAB
  0
TABLE
  2
VIEW
 70
1
  0
VIEW
  2
BF_TOPVIEW
 70
0
 40
120.0
 10
0.0
 20
0.0
 41
200.0
 11
0.0
 21
0.0
 31
1.0
 12
0.0
 22
0.0
 32
0.0
 42
50.0
 43
0.0
 44
0.0
 50
0.0
 71
0
  0
ENDTAB
  0
ENDSEC
  0
SECTION
  2
BLOCKS
  0
ENDSEC
  0
SECTION
  2
ENTITIES
  0
3DFACE
  8
0
 10
1.3757307529449463
 20
1.5048723220825195
 30
2.4959444999694824e-07
 11
1.3757307529449463
 21
1.1432671546936035
 31
2.4959444999694824e-07
 12
1.2957308292388916
 22
1.1432671546936035
 32
2.4959444999694824e-07
 13
1.2957308292388916
 23
1.1432671546936035
 33
2.4959444999694824e-07
  0
3DFACE
  8
0
 10
1.2957308292388916
 20
0.781661868095398
 30
2.4959444999694824e-07
 11
1.3757307529449463
 21
0.781661868095398
 31
2.4959444999694824e-07
 12
1.3757307529449463
 22
0.4469328820705414
 32
2.4959444999694824e-07
 13
1.3757307529449463
 23
0.4469328820705414
 33
2.4959444999694824e-07
  0
3DFACE
  8
0
 10
1.2957308292388916
 20
1.5048723220825195
 30
2.4959444999694824e-07
 11
1.3757307529449463
 21
1.5048723220825195
 31
2.4959444999694824e-07
 12
1.2957308292388916
 22
1.1432671546936035
 32
2.4959444999694824e-07
 13
1.2957308292388916
 23
1.1432671546936035
 33
2.4959444999694824e-07
  0
3DFACE
  8
0
 10
1.2957308292388916
 20
0.781661868095398
 30
2.4959444999694824e-07
 11
1.3757307529449463
 21
0.4469328820705414
 31
2.4959444999694824e-07
 12
1.055889368057251
 22
0.4469328820705414
 32
2.4959444999694824e-07
 13
1.055889368057251
 23
0.4469328820705414
 33
2.4959444999694824e-07
  0
3DFACE
  8
0
 10
1.2957308292388916
 20
1.5048723220825195
 30
2.4959444999694824e-07
 11
1.2957308292388916
 21
1.1432671546936035
 31
2.4959444999694824e-07
 12
1.2957308292388916
 22
0.781661868095398
 32
2.4959444999694824e-07
 13
1.2957308292388916
 23
0.781661868095398
 33
2.4959444999694824e-07
  0
3DFACE
  8
0
 10
1.3757301568984985
 20
2.2280826568603516
 30
2.4959444999694824e-07
 11
1.3757306337356567
 21
1.8664774894714355
 31
2.4959444999694824e-07
 12
1.2957302331924438
 22
1.8664774894714355
 32
2.4959444999694824e-07
 13
1.2957302331924438
 23
1.8664774894714355
 33
2.4959444999694824e-07
  0
3DFACE
  8
0
 10
1.2957302331924438
 20
1.8664774894714355
 30
2.4959444999694824e-07
 11
1.2957308292388916
 21
1.5048723220825195
 31
2.4959444999694824e-07
 12
1.2957308292388916
 22
0.781661868095398
 32
2.4959444999694824e-07
 13
1.2957308292388916
 23
0.781661868095398
 33
2.4959444999694824e-07
  0
3DFACE
  8
0
 10
1.055889368057251
 20
0.4469328820705414
 30
2.4959444999694824e-07
 11
1.055889368057251
 21
0.3669334352016449
 31
2.4959444999694824e-07
 12
0.7360296845436096
 22
0.3669334053993225
 32
2.4959444999694824e-07
 13
0.7360296845436096
 23
0.3669334053993225
 33
2.4959444999694824e-07
  0
3DFACE
  8
0
 10
1.2957302331924438
 20
1.8664774894714355
 30
2.4959444999694824e-07
 11
1.2957308292388916
 21
0.781661868095398
 31
2.4959444999694824e-07
 12
1.055889368057251
 22
0.4469328820705414
 32
2.4959444999694824e-07
 13
1.055889368057251
 23
0.4469328820705414
 33
2.4959444999694824e-07
  0
3DFACE
  8
0
 10
1.2957302331924438
 20
2.2280826568603516
 30
2.4959444999694824e-07
 11
1.3757301568984985
 21
2.2280826568603516
 31
2.4959444999694824e-07
 12
1.2957302331924438
 22
1.8664774894714355
 32
2.4959444999694824e-07
 13
1.2957302331924438
 23
1.8664774894714355
 33
2.4959444999694824e-07
  0
3DFACE
  8
0
 10
1.3757301568984985
 20
2.9512929916381836
 30
2.4959444999694824e-07
 11
1.3757301568984985
 21
2.5896878242492676
 31
2.4959444999694824e-07
 12
1.2957302331924438
 22
2.5896878242492676
 32
2.4959444999694824e-07
 13
1.2957302331924438
 23
2.5896878242492676
 33
2.4959444999694824e-07
  0
3DFACE
  8
0
 10
1.2957302331924438
 20
2.5896878242492676
 30
2.4959444999694824e-07
 11
1.2957302331924438
 21
2.2280826568603516
 31
2.4959444999694824e-07
 12
1.2957302331924438
 22
1.8664774894714355
 32
2.4959444999694824e-07
 13
1.2957302331924438
 23
1.8664774894714355
 33
2.4959444999694824e-07
  0
3DFACE
  8
0
 10
1.2957302331924438
 20
1.8664774894714355
 30
2.4959444999694824e-07
 11
1.055889368057251
 21
0.4469328820705414
 31
2.4959444999694824e-07
 12
0.7360296845436096
 22
0.3669334053993225
 32
2.4959444999694824e-07
 13
0.7360296845436096
 23
0.3669334053993225
 33
2.4959444999694824e-07
  0
3DFACE
  8
0
 10
0.41615965962409973
 20
0.4469328224658966
 30
2.4959444999694824e-07
 11
0.4161596894264221
 21
0.3669333755970001
 31
2.4959444999694824e-07
 12
0.09629969298839569
 22
0.36693334579467773
 32
2.7939677238464355e-07
 13
0.09629969298839569
 23
0.36693334579467773
 33
2.7939677238464355e-07
  0
3DFACE
  8
0
 10
1.2957302331924438
 20
1.8664774894714355
 30
2.4959444999694824e-07
 11
0.7360296845436096
 21
0.3669334053993225
 31
2.4959444999694824e-07
 12
0.7360296845436096
 22
0.446932852268219
 32
2.4959444999694824e-07
 13
0.7360296845436096
 23
0.446932852268219
 33
2.4959444999694824e-07
  0
3DFACE
  8
0
 10
0.41615965962409973
 20
0.4469328224658966
 30
2.4959444999694824e-07
 11
0.09629969298839569
 21
0.36693334579467773
 31
2.7939677238464355e-07
 12
0.0962996855378151
 22
0.4469327926635742
 32
2.7939677238464355e-07
 13
0.0962996855378151
 23
0.4469327926635742
 33
2.7939677238464355e-07
  0
3DFACE
  8
0
 10
1.2957302331924438
 20
1.8664774894714355
 30
2.4959444999694824e-07
 11
0.7360296845436096
 21
0.446932852268219
 31
2.4959444999694824e-07
 12
0.41615965962409973
 22
0.4469328224658966
 32
2.4959444999694824e-07
 13
0.41615965962409973
 23
0.4469328224658966
 33
2.4959444999694824e-07
  0
3DFACE
  8
0
 10
-1.1833308935165405
 20
2.9512927532196045
 30
2.4959444999694824e-07
 11
1.3757301568984985
 21
2.9512929916381836
 31
2.4959444999694824e-07
 12
1.2957302331924438
 22
2.5896878242492676
 32
2.4959444999694824e-07
 13
1.2957302331924438
 23
2.5896878242492676
 33
2.4959444999694824e-07
  0
3DFACE
  8
0
 10
1.2957302331924438
 20
2.5896878242492676
 30
2.4959444999694824e-07
 11
1.2957302331924438
 21
1.8664774894714355
 31
2.4959444999694824e-07
 12
0.41615965962409973
 22
0.4469328224658966
 32
2.4959444999694824e-07
 13
0.41615965962409973
 23
0.4469328224658966
 33
2.4959444999694824e-07
  0
3DFACE
  8
0
 10
-0.5605360865592957
 20
0.44693249464035034
 30
2.4959444999694824e-07
 11
-0.5605360865592957
 21
0.36693304777145386
 31
2.4959444999694824e-07
 12
-0.8803910613059998
 22
0.36693304777145386
 32
2.4959444999694824e-07
 13
-0.8803910613059998
 23
0.36693304777145386
 33
2.4959444999694824e-07
  0
3DFACE
  8
0
 10
1.2957302331924438
 20
2.5896878242492676
 30
2.4959444999694824e-07
 11
0.41615965962409973
 21
0.4469328224658966
 31
2.4959444999694824e-07
 12
0.0962996855378151
 22
0.4469327926635742
 32
2.7939677238464355e-07
 13
0.0962996855378151
 23
0.4469327926635742
 33
2.7939677238464355e-07
  0
3DFACE
  8
0
 10
-0.5605360865592957
 20
0.44693249464035034
 30
2.4959444999694824e-07
 11
-0.8803910613059998
 21
0.36693304777145386
 31
2.4959444999694824e-07
 12
-0.8803910613059998
 22
0.44693249464035034
 32
2.4959444999694824e-07
 13
-0.8803910613059998
 23
0.44693249464035034
 33
2.4959444999694824e-07
  0
3DFACE
  8
0
 10
1.2957302331924438
 20
2.5896878242492676
 30
2.4959444999694824e-07
 11
0.0962996855378151
 21
0.4469327926635742
 31
2.7939677238464355e-07
 12
-0.5605360865592957
 22
0.44693249464035034
 32
2.4959444999694824e-07
 13
-0.5605360865592957
 23
0.44693249464035034
 33
2.4959444999694824e-07
  0
3DFACE
  8
0
 10
-1.1833308935165405
 20
2.5896873474121094
 30
2.4959444999694824e-07
 11
-1.1833308935165405
 21
2.9512927532196045
 31
2.4959444999694824e-07
 12
1.2957302331924438
 22
2.5896878242492676
 32
2.4959444999694824e-07
 13
1.2957302331924438
 23
2.5896878242492676
 33
2.4959444999694824e-07
  0
3DFACE
  8
0
 10
-1.263150691986084
 20
2.2280821800231934
 30
2.4959444999694824e-07
 11
-1.2631508111953735
 21
2.5896873474121094
 31
2.4959444999694824e-07
 12
-1.1833308935165405
 22
2.5896873474121094
 32
2.4959444999694824e-07
 13
-1.1833308935165405
 23
2.5896873474121094
 33
2.4959444999694824e-07
  0
3DFACE
  8
0
 10
-1.2631503343582153
 20
1.5048719644546509
 30
2.4959444999694824e-07
 11
-1.2631505727767944
 21
1.866477131843567
 31
2.4959444999694824e-07
 12
-1.1833306550979614
 22
1.866477131843567
 32
2.4959444999694824e-07
 13
-1.1833306550979614
 23
1.866477131843567
 33
2.4959444999694824e-07
  0
3DFACE
  8
0
 10
-1.1833308935165405
 20
2.2280821800231934
 30
2.4959444999694824e-07
 11
-1.263150691986084
 21
2.2280821800231934
 31
2.4959444999694824e-07
 12
-1.1833308935165405
 22
2.5896873474121094
 32
2.4959444999694824e-07
 13
-1.1833308935165405
 23
2.5896873474121094
 33
2.4959444999694824e-07
  0
3DFACE
  8
0
 10
-1.1833302974700928
 20
1.5048719644546509
 30
2.4959444999694824e-07
 11
-1.2631503343582153
 21
1.5048719644546509
 31
2.4959444999694824e-07
 12
-1.1833306550979614
 22
1.866477131843567
 32
2.4959444999694824e-07
 13
-1.1833306550979614
 23
1.866477131843567
 33
2.4959444999694824e-07
  0
3DFACE
  8
0
 10
-1.1833306550979614
 20
1.866477131843567
 30
2.4959444999694824e-07
 11
-1.1833308935165405
 21
2.2280821800231934
 31
2.4959444999694824e-07
 12
-1.1833308935165405
 22
2.5896873474121094
 32
2.4959444999694824e-07
 13
-1.1833308935165405
 23
2.5896873474121094
 33
2.4959444999694824e-07
  0
3DFACE
  8
0
 10
-1.1833308935165405
 20
2.5896873474121094
 30
2.4959444999694824e-07
 11
1.2957302331924438
 21
2.5896878242492676
 31
2.4959444999694824e-07
 12
-0.5605360865592957
 22
0.44693249464035034
 32
2.4959444999694824e-07
 13
-0.5605360865592957
 23
0.44693249464035034
 33
2.4959444999694824e-07
  0
3DFACE
  8
0
 10
-0.8803910613059998
 20
0.44693249464035034
 30
2.4959444999694824e-07
 11
-1.1833298206329346
 21
0.44693246483802795
 31
2.4959444999694824e-07
 12
-1.1833302974700928
 22
0.7816613912582397
 32
2.4959444999694824e-07
 13
-1.1833302974700928
 23
0.7816613912582397
 33
2.4959444999694824e-07
  0
3DFACE
  8
0
 10
-1.1833308935165405
 20
2.5896873474121094
 30
2.4959444999694824e-07
 11
-0.5605360865592957
 21
0.44693249464035034
 31
2.4959444999694824e-07
 12
-0.8803910613059998
 22
0.44693249464035034
 32
2.4959444999694824e-07
 13
-0.8803910613059998
 23
0.44693249464035034
 33
2.4959444999694824e-07
  0
3DFACE
  8
0
 10
-1.1833302974700928
 20
1.5048719644546509
 30
2.4959444999694824e-07
 11
-1.1833306550979614
 21
1.866477131843567
 31
2.4959444999694824e-07
 12
-1.1833308935165405
 22
2.5896873474121094
 32
2.4959444999694824e-07
 13
-1.1833308935165405
 23
2.5896873474121094
 33
2.4959444999694824e-07
  0
3DFACE
  8
0
 10
-1.2631500959396362
 20
0.7816613912582397
 30
2.4959444999694824e-07
 11
-1.2631502151489258
 21
1.1432666778564453
 31
2.4959444999694824e-07
 12
-1.1833302974700928
 22
1.1432666778564453
 32
2.4959444999694824e-07
 13
-1.1833302974700928
 23
1.1432666778564453
 33
2.4959444999694824e-07
  0
3DFACE
  8
0
 10
-1.1833302974700928
 20
1.5048719644546509
 30
2.4959444999694824e-07
 11
-1.1833308935165405
 21
2.5896873474121094
 31
2.4959444999694824e-07
 12
-0.8803910613059998
 22
0.44693249464035034
 32
2.4959444999694824e-07
 13
-0.8803910613059998
 23
0.44693249464035034
 33
2.4959444999694824e-07
  0
3DFACE
  8
0
 10
-1.1833302974700928
 20
0.7816613912582397
 30
2.4959444999694824e-07
 11
-1.2631500959396362
 21
0.7816613912582397
 31
2.4959444999694824e-07
 12
-1.1833302974700928
 22
1.1432666778564453
 32
2.4959444999694824e-07
 13
-1.1833302974700928
 23
1.1432666778564453
 33
2.4959444999694824e-07
  0
3DFACE
  8
0
 10
-1.1833302974700928
 20
1.1432666778564453
 30
2.4959444999694824e-07
 11
-1.1833302974700928
 21
1.5048719644546509
 31
2.4959444999694824e-07
 12
-0.8803910613059998
 22
0.44693249464035034
 32
2.4959444999694824e-07
 13
-0.8803910613059998
 23
0.44693249464035034
 33
2.4959444999694824e-07
  0
3DFACE
  8
0
 10
-0.8803910613059998
 20
0.44693249464035034
 30
2.4959444999694824e-07
 11
-1.1833302974700928
 21
0.7816613912582397
 31
2.4959444999694824e-07
 12
-1.1833302974700928
 22
1.1432666778564453
 32
2.4959444999694824e-07
 13
-1.1833302974700928
 23
1.1432666778564453
 33
2.4959444999694824e-07
  0
3DFACE
  8
0
 10
1.2957305908203125
 20
4.759318828582764
 30
2.4959444999694824e-07
 11
1.3757305145263672
 21
4.759318828582764
 31
2.4959444999694824e-07
 12
1.3757305145263672
 22
4.397713661193848
 32
2.4959444999694824e-07
 13
1.3757305145263672
 23
4.397713661193848
 33
2.4959444999694824e-07
  0
3DFACE
  8
0
 10
1.2957301139831543
 20
4.036108493804932
 30
2.4959444999694824e-07
 11
1.3757305145263672
 21
4.036108493804932
 31
2.4959444999694824e-07
 12
1.375730037689209
 22
3.6745030879974365
 32
2.4959444999694824e-07
 13
1.375730037689209
 23
3.6745030879974365
 33
2.4959444999694824e-07
  0
3DFACE
  8
0
 10
1.2957305908203125
 20
4.759318828582764
 30
2.4959444999694824e-07
 11
1.3757305145263672
 21
4.397713661193848
 31
2.4959444999694824e-07
 12
1.2957305908203125
 22
4.397713661193848
 32
2.4959444999694824e-07
 13
1.2957305908203125
 23
4.397713661193848
 33
2.4959444999694824e-07
  0
3DFACE
  8
0
 10
1.2957301139831543
 20
4.036108493804932
 30
2.4959444999694824e-07
 11
1.375730037689209
 21
3.6745030879974365
 31
2.4959444999694824e-07
 12
1.2957301139831543
 22
3.6745030879974365
 32
2.4959444999694824e-07
 13
1.2957301139831543
 23
3.6745030879974365
 33
2.4959444999694824e-07
  0
3DFACE
  8
0
 10
1.2957305908203125
 20
4.759318828582764
 30
2.4959444999694824e-07
 11
1.2957305908203125
 21
4.397713661193848
 31
2.4959444999694824e-07
 12
1.2957301139831543
 22
4.036108493804932
 32
2.4959444999694824e-07
 13
1.2957301139831543
 23
4.036108493804932
 33
2.4959444999694824e-07
  0
3DFACE
  8
0
 10
1.3757303953170776
 20
5.455652713775635
 30
2.4959444999694824e-07
 11
1.3757303953170776
 21
5.12092399597168
 31
2.4959444999694824e-07
 12
1.295730471611023
 22
5.12092399597168
 32
2.4959444999694824e-07
 13
1.295730471611023
 23
5.12092399597168
 33
2.4959444999694824e-07
  0
3DFACE
  8
0
 10
1.295730471611023
 20
5.12092399597168
 30
2.4959444999694824e-07
 11
1.2957305908203125
 21
4.759318828582764
 31
2.4959444999694824e-07
 12
1.2957301139831543
 22
4.036108493804932
 32
2.4959444999694824e-07
 13
1.2957301139831543
 23
4.036108493804932
 33
2.4959444999694824e-07
  0
3DFACE
  8
0
 10
1.2957301139831543
 20
4.036108493804932
 30
2.4959444999694824e-07
 11
1.2957301139831543
 21
3.6745030879974365
 31
2.4959444999694824e-07
 12
1.2957302331924438
 22
3.3128981590270996
 32
2.4959444999694824e-07
 13
1.2957302331924438
 23
3.3128981590270996
 33
2.4959444999694824e-07
  0
3DFACE
  8
0
 10
1.2957302331924438
 20
3.3128981590270996
 30
2.4959444999694824e-07
 11
1.3757301568984985
 21
3.3128979206085205
 31
2.4959444999694824e-07
 12
1.3757301568984985
 22
2.9512929916381836
 32
2.4959444999694824e-07
 13
1.3757301568984985
 23
2.9512929916381836
 33
2.4959444999694824e-07
  0
3DFACE
  8
0
 10
1.3757301568984985
 20
2.9512929916381836
 30
2.4959444999694824e-07
 11
-1.1833308935165405
 21
2.9512927532196045
 31
2.4959444999694824e-07
 12
-1.1833308935165405
 22
3.3128981590270996
 32
2.4959444999694824e-07
 13
-1.1833308935165405
 23
3.3128981590270996
 33
2.4959444999694824e-07
  0
3DFACE
  8
0
 10
-1.1833308935165405
 20
3.3128981590270996
 30
2.4959444999694824e-07
 11
-1.2631508111953735
 21
3.3128981590270996
 31
2.4959444999694824e-07
 12
-1.2631508111953735
 22
3.6745030879974365
 32
2.4959444999694824e-07
 13
-1.2631508111953735
 23
3.6745030879974365
 33
2.4959444999694824e-07
  0
3DFACE
  8
0
 10
-1.183330774307251
 20
4.036108493804932
 30
2.4959444999694824e-07
 11
-1.263150691986084
 21
4.036108493804932
 31
2.4959444999694824e-07
 12
-1.2631505727767944
 22
4.397713661193848
 32
2.4959444999694824e-07
 13
-1.2631505727767944
 23
4.397713661193848
 33
2.4959444999694824e-07
  0
3DFACE
  8
0
 10
-1.1833308935165405
 20
3.3128981590270996
 30
2.4959444999694824e-07
 11
-1.2631508111953735
 21
3.6745030879974365
 31
2.4959444999694824e-07
 12
-1.18333101272583
 22
3.6745030879974365
 32
2.4959444999694824e-07
 13
-1.18333101272583
 23
3.6745030879974365
 33
2.4959444999694824e-07
  0
3DFACE
  8
0
 10
-1.183330774307251
 20
4.036108493804932
 30
2.4959444999694824e-07
 11
-1.2631505727767944
 21
4.397713661193848
 31
2.4959444999694824e-07
 12
-1.1833305358886719
 22
4.397713661193848
 32
2.4959444999694824e-07
 13
-1.1833305358886719
 23
4.397713661193848
 33
2.4959444999694824e-07
  0
3DFACE
  8
0
 10
-1.1833308935165405
 20
3.3128981590270996
 30
2.4959444999694824e-07
 11
-1.18333101272583
 21
3.6745030879974365
 31
2.4959444999694824e-07
 12
-1.183330774307251
 22
4.036108493804932
 32
2.4959444999694824e-07
 13
-1.183330774307251
 23
4.036108493804932
 33
2.4959444999694824e-07
  0
3DFACE
  8
0
 10
1.2957302331924438
 20
3.3128981590270996
 30
2.4959444999694824e-07
 11
1.3757301568984985
 21
2.9512929916381836
 31
2.4959444999694824e-07
 12
-1.1833308935165405
 22
3.3128981590270996
 32
2.4959444999694824e-07
 13
-1.1833308935165405
 23
3.3128981590270996
 33
2.4959444999694824e-07
  0
3DFACE
  8
0
 10
1.0558890104293823
 20
5.455652713775635
 30
2.4959444999694824e-07
 11
1.3757303953170776
 21
5.455652713775635
 31
2.4959444999694824e-07
 12
1.295730471611023
 22
5.12092399597168
 32
2.4959444999694824e-07
 13
1.295730471611023
 23
5.12092399597168
 33
2.4959444999694824e-07
  0
3DFACE
  8
0
 10
1.2957301139831543
 20
4.036108493804932
 30
2.4959444999694824e-07
 11
1.2957302331924438
 21
3.3128981590270996
 31
2.4959444999694824e-07
 12
-1.1833308935165405
 22
3.3128981590270996
 32
2.4959444999694824e-07
 13
-1.1833308935165405
 23
3.3128981590270996
 33
2.4959444999694824e-07
  0
3DFACE
  8
0
 10
1.0558890104293823
 20
5.455652713775635
 30
2.4959444999694824e-07
 11
1.295730471611023
 21
5.12092399597168
 31
2.4959444999694824e-07
 12
1.2957301139831543
 22
4.036108493804932
 32
2.4959444999694824e-07
 13
1.2957301139831543
 23
4.036108493804932
 33
2.4959444999694824e-07
  0
3DFACE
  8
0
 10
0.7360292673110962
 20
5.535652160644531
 30
2.4959444999694824e-07
 11
1.0558890104293823
 21
5.535652160644531
 31
2.4959444999694824e-07
 12
1.0558890104293823
 22
5.455652713775635
 32
2.4959444999694824e-07
 13
1.0558890104293823
 23
5.455652713775635
 33
2.4959444999694824e-07
  0
3DFACE
  8
0
 10
0.09629930555820465
 20
5.535652160644531
 30
2.7939677238464355e-07
 11
0.4161592721939087
 21
5.535652160644531
 31
2.4959444999694824e-07
 12
0.4161593019962311
 22
5.455652713775635
 32
2.4959444999694824e-07
 13
0.4161593019962311
 23
5.455652713775635
 33
2.4959444999694824e-07
  0
3DFACE
  8
0
 10
0.7360292673110962
 20
5.455652713775635
 30
2.4959444999694824e-07
 11
0.7360292673110962
 21
5.535652160644531
 31
2.4959444999694824e-07
 12
1.0558890104293823
 22
5.455652713775635
 32
2.4959444999694824e-07
 13
1.0558890104293823
 23
5.455652713775635
 33
2.4959444999694824e-07
  0
3DFACE
  8
0
 10
0.09629931300878525
 20
5.455652713775635
 30
2.7939677238464355e-07
 11
0.09629930555820465
 21
5.535652160644531
 31
2.7939677238464355e-07
 12
0.4161593019962311
 22
5.455652713775635
 32
2.4959444999694824e-07
 13
0.4161593019962311
 23
5.455652713775635
 33
2.4959444999694824e-07
  0
3DFACE
  8
0
 10
0.7360292673110962
 20
5.455652713775635
 30
2.4959444999694824e-07
 11
1.0558890104293823
 21
5.455652713775635
 31
2.4959444999694824e-07
 12
1.2957301139831543
 22
4.036108493804932
 32
2.4959444999694824e-07
 13
1.2957301139831543
 23
4.036108493804932
 33
2.4959444999694824e-07
  0
3DFACE
  8
0
 10
-0.8803914785385132
 20
5.535652160644531
 30
2.4959444999694824e-07
 11
-0.5605365037918091
 21
5.535652160644531
 31
2.4959444999694824e-07
 12
-0.5605365037918091
 22
5.455652713775635
 32
2.4959444999694824e-07
 13
-0.5605365037918091
 23
5.455652713775635
 33
2.4959444999694824e-07
  0
3DFACE
  8
0
 10
0.4161593019962311
 20
5.455652713775635
 30
2.4959444999694824e-07
 11
0.7360292673110962
 21
5.455652713775635
 31
2.4959444999694824e-07
 12
1.2957301139831543
 22
4.036108493804932
 32
2.4959444999694824e-07
 13
1.2957301139831543
 23
4.036108493804932
 33
2.4959444999694824e-07
  0
3DFACE
  8
0
 10
-0.8803914785385132
 20
5.455652713775635
 30
2.4959444999694824e-07
 11
-0.8803914785385132
 21
5.535652160644531
 31
2.4959444999694824e-07
 12
-0.5605365037918091
 22
5.455652713775635
 32
2.4959444999694824e-07
 13
-0.5605365037918091
 23
5.455652713775635
 33
2.4959444999694824e-07
  0
3DFACE
  8
0
 10
0.09629931300878525
 20
5.455652713775635
 30
2.7939677238464355e-07
 11
0.4161593019962311
 21
5.455652713775635
 31
2.4959444999694824e-07
 12
1.2957301139831543
 22
4.036108493804932
 32
2.4959444999694824e-07
 13
1.2957301139831543
 23
4.036108493804932
 33
2.4959444999694824e-07
  0
3DFACE
  8
0
 10
-0.8803914785385132
 20
5.455652713775635
 30
2.4959444999694824e-07
 11
-0.5605365037918091
 21
5.455652713775635
 31
2.4959444999694824e-07
 12
0.09629931300878525
 22
5.455652713775635
 32
2.7939677238464355e-07
 13
0.09629931300878525
 23
5.455652713775635
 33
2.7939677238464355e-07
  0
3DFACE
  8
0
 10
-1.1833306550979614
 20
5.12092399597168
 30
2.4959444999694824e-07
 11
-1.1833301782608032
 21
5.455652713775635
 31
2.4959444999694824e-07
 12
-0.8803914785385132
 22
5.455652713775635
 32
2.4959444999694824e-07
 13
-0.8803914785385132
 23
5.455652713775635
 33
2.4959444999694824e-07
  0
3DFACE
  8
0
 10
-1.2631504535675049
 20
4.759318828582764
 30
2.4959444999694824e-07
 11
-1.2631504535675049
 21
5.12092399597168
 31
2.4959444999694824e-07
 12
-1.1833306550979614
 22
5.12092399597168
 32
2.4959444999694824e-07
 13
-1.1833306550979614
 23
5.12092399597168
 33
2.4959444999694824e-07
  0
3DFACE
  8
0
 10
-1.1833308935165405
 20
3.3128981590270996
 30
2.4959444999694824e-07
 11
-1.183330774307251
 21
4.036108493804932
 31
2.4959444999694824e-07
 12
-1.1833305358886719
 22
4.397713661193848
 32
2.4959444999694824e-07
 13
-1.1833305358886719
 23
4.397713661193848
 33
2.4959444999694824e-07
  0
3DFACE
  8
0
 10
-1.1833305358886719
 20
4.759318828582764
 30
2.4959444999694824e-07
 11
-1.2631504535675049
 21
4.759318828582764
 31
2.4959444999694824e-07
 12
-1.1833306550979614
 22
5.12092399597168
 32
2.4959444999694824e-07
 13
-1.1833306550979614
 23
5.12092399597168
 33
2.4959444999694824e-07
  0
3DFACE
  8
0
 10
1.2957301139831543
 20
4.036108493804932
 30
2.4959444999694824e-07
 11
-1.1833308935165405
 21
3.3128981590270996
 31
2.4959444999694824e-07
 12
-1.1833305358886719
 22
4.397713661193848
 32
2.4959444999694824e-07
 13
-1.1833305358886719
 23
4.397713661193848
 33
2.4959444999694824e-07
  0
3DFACE
  8
0
 10
-1.1833305358886719
 20
4.397713661193848
 30
2.4959444999694824e-07
 11
-1.1833305358886719
 21
4.759318828582764
 31
2.4959444999694824e-07
 12
-1.1833306550979614
 22
5.12092399597168
 32
2.4959444999694824e-07
 13
-1.1833306550979614
 23
5.12092399597168
 33
2.4959444999694824e-07
  0
3DFACE
  8
0
 10
-1.1833306550979614
 20
5.12092399597168
 30
2.4959444999694824e-07
 11
-0.8803914785385132
 21
5.455652713775635
 31
2.4959444999694824e-07
 12
0.09629931300878525
 22
5.455652713775635
 32
2.7939677238464355e-07
 13
0.09629931300878525
 23
5.455652713775635
 33
2.7939677238464355e-07
  0
3DFACE
  8
0
 10
0.09629931300878525
 20
5.455652713775635
 30
2.7939677238464355e-07
 11
1.2957301139831543
 21
4.036108493804932
 31
2.4959444999694824e-07
 12
-1.1833305358886719
 22
4.397713661193848
 32
2.4959444999694824e-07
 13
-1.1833305358886719
 23
4.397713661193848
 33
2.4959444999694824e-07
  0
3DFACE
  8
0
 10
-1.1833305358886719
 20
4.397713661193848
 30
2.4959444999694824e-07
 11
-1.1833306550979614
 21
5.12092399597168
 31
2.4959444999694824e-07
 12
0.09629931300878525
 22
5.455652713775635
 32
2.7939677238464355e-07
 13
0.09629931300878525
 23
5.455652713775635
 33
2.7939677238464355e-07
  0
3DFACE
  8
0
 10
1.6976230144500732
 20
-8.297174453735352
 30
2.2724270820617676e-07
 11
1.6976230144500732
 21
-8.680624961853027
 31
2.2724270820617676e-07
 12
1.6176228523254395
 22
-8.680624961853027
 32
2.2724270820617676e-07
 13
1.6176228523254395
 23
-8.680624961853027
 33
2.2724270820617676e-07
  0
3DFACE
  8
0
 10
1.6176228523254395
 20
-9.05097484588623
 30
2.2724270820617676e-07
 11
1.6976230144500732
 21
-9.05097484588623
 31
2.2724270820617676e-07
 12
1.6976231336593628
 22
-9.278434753417969
 32
2.2724270820617676e-07
 13
1.6976231336593628
 23
-9.278434753417969
 33
2.2724270820617676e-07
  0
3DFACE
  8
0
 10
1.6176228523254395
 20
-8.297174453735352
 30
2.2724270820617676e-07
 11
1.6976230144500732
 21
-8.297174453735352
 31
2.2724270820617676e-07
 12
1.6176228523254395
 22
-8.680624961853027
 32
2.2724270820617676e-07
 13
1.6176228523254395
 23
-8.680624961853027
 33
2.2724270820617676e-07
  0
3DFACE
  8
0
 10
1.6176228523254395
 20
-9.05097484588623
 30
2.2724270820617676e-07
 11
1.6976231336593628
 21
-9.278434753417969
 31
2.2724270820617676e-07
 12
1.5418249368667603
 22
-9.278434753417969
 32
2.2724270820617676e-07
 13
1.5418249368667603
 23
-9.278434753417969
 33
2.2724270820617676e-07
  0
3DFACE
  8
0
 10
1.6176228523254395
 20
-8.297174453735352
 30
2.2724270820617676e-07
 11
1.6176228523254395
 21
-8.680624961853027
 31
2.2724270820617676e-07
 12
1.6176228523254395
 22
-9.05097484588623
 32
2.2724270820617676e-07
 13
1.6176228523254395
 23
-9.05097484588623
 33
2.2724270820617676e-07
  0
3DFACE
  8
0
 10
1.6976230144500732
 20
-7.52886438369751
 30
2.2724270820617676e-07
 11
1.6976230144500732
 21
-7.87978458404541
 31
2.2724270820617676e-07
 12
1.6176228523254395
 22
-7.87978458404541
 32
2.2724270820617676e-07
 13
1.6176228523254395
 23
-7.87978458404541
 33
2.2724270820617676e-07
  0
3DFACE
  8
0
 10
1.6176228523254395
 20
-7.87978458404541
 30
2.2724270820617676e-07
 11
1.6176228523254395
 21
-8.297174453735352
 31
2.2724270820617676e-07
 12
1.6176228523254395
 22
-9.05097484588623
 32
2.2724270820617676e-07
 13
1.6176228523254395
 23
-9.05097484588623
 33
2.2724270820617676e-07
  0
3DFACE
  8
0
 10
1.6176228523254395
 20
-9.05097484588623
 30
2.2724270820617676e-07
 11
1.5418249368667603
 21
-9.278434753417969
 31
2.2724270820617676e-07
 12
1.5418249368667603
 22
-9.198434829711914
 32
2.2724270820617676e-07
 13
1.5418249368667603
 23
-9.198434829711914
 33
2.2724270820617676e-07
  0
3DFACE
  8
0
 10
1.3860269784927368
 20
-9.198434829711914
 30
2.2724270820617676e-07
 11
1.3860269784927368
 21
-9.278434753417969
 31
2.2724270820617676e-07
 12
1.2302290201187134
 22
-9.278434753417969
 32
2.2724270820617676e-07
 13
1.2302290201187134
 23
-9.278434753417969
 33
2.2724270820617676e-07
  0
3DFACE
  8
0
 10
1.6176228523254395
 20
-9.05097484588623
 30
2.2724270820617676e-07
 11
1.5418249368667603
 21
-9.198434829711914
 31
2.2724270820617676e-07
 12
1.3860269784927368
 22
-9.198434829711914
 32
2.2724270820617676e-07
 13
1.3860269784927368
 23
-9.198434829711914
 33
2.2724270820617676e-07
  0
3DFACE
  8
0
 10
1.6176228523254395
 20
-7.52886438369751
 30
2.2724270820617676e-07
 11
1.6976230144500732
 21
-7.52886438369751
 31
2.2724270820617676e-07
 12
1.6176228523254395
 22
-7.87978458404541
 32
2.2724270820617676e-07
 13
1.6176228523254395
 23
-7.87978458404541
 33
2.2724270820617676e-07
  0
3DFACE
  8
0
 10
1.6176228523254395
 20
-7.87978458404541
 30
2.2724270820617676e-07
 11
1.6176228523254395
 21
-9.05097484588623
 31
2.2724270820617676e-07
 12
1.3860269784927368
 22
-9.198434829711914
 32
2.2724270820617676e-07
 13
1.3860269784927368
 23
-9.198434829711914
 33
2.2724270820617676e-07
  0
3DFACE
  8
0
 10
1.3860269784927368
 20
-9.198434829711914
 30
2.2724270820617676e-07
 11
1.2302290201187134
 21
-9.278434753417969
 31
2.2724270820617676e-07
 12
1.2302290201187134
 22
-9.198434829711914
 32
2.2724270820617676e-07
 13
1.2302290201187134
 23
-9.198434829711914
 33
2.2724270820617676e-07
  0
3DFACE
  8
0
 10
1.07443106174469
 20
-9.198434829711914
 30
2.2724270820617676e-07
 11
1.07443106174469
 21
-9.278434753417969
 31
2.2724270820617676e-07
 12
0.9186330437660217
 22
-9.278434753417969
 32
2.2724270820617676e-07
 13
0.9186330437660217
 23
-9.278434753417969
 33
2.2724270820617676e-07
  0
3DFACE
  8
0
 10
1.3860269784927368
 20
-9.198434829711914
 30
2.2724270820617676e-07
 11
1.2302290201187134
 21
-9.198434829711914
 31
2.2724270820617676e-07
 12
1.07443106174469
 22
-9.198434829711914
 32
2.2724270820617676e-07
 13
1.07443106174469
 23
-9.198434829711914
 33
2.2724270820617676e-07
  0
3DFACE
  8
0
 10
1.6176228523254395
 20
-7.52886438369751
 30
2.2724270820617676e-07
 11
1.6176228523254395
 21
-7.87978458404541
 31
2.2724270820617676e-07
 12
1.3860269784927368
 22
-9.198434829711914
 32
2.2724270820617676e-07
 13
1.3860269784927368
 23
-9.198434829711914
 33
2.2724270820617676e-07
  0
3DFACE
  8
0
 10
1.6976228952407837
 20
-6.694074630737305
 30
2.2724270820617676e-07
 11
1.6976228952407837
 21
-7.111464500427246
 31
2.2724270820617676e-07
 12
1.61762273311615
 22
-7.111464500427246
 32
2.2724270820617676e-07
 13
1.61762273311615
 23
-7.111464500427246
 33
2.2724270820617676e-07
  0
3DFACE
  8
0
 10
1.61762273311615
 20
-7.111464500427246
 30
2.2724270820617676e-07
 11
1.6176228523254395
 21
-7.52886438369751
 31
2.2724270820617676e-07
 12
1.3860269784927368
 22
-9.198434829711914
 32
2.2724270820617676e-07
 13
1.3860269784927368
 23
-9.198434829711914
 33
2.2724270820617676e-07
  0
3DFACE
  8
0
 10
1.07443106174469
 20
-9.198434829711914
 30
2.2724270820617676e-07
 11
0.9186330437660217
 21
-9.278434753417969
 31
2.2724270820617676e-07
 12
0.9186328649520874
 22
-6.694074630737305
 32
2.2724270820617676e-07
 13
0.9186328649520874
 23
-6.694074630737305
 33
2.2724270820617676e-07
  0
3DFACE
  8
0
 10
1.61762273311615
 20
-7.111464500427246
 30
2.2724270820617676e-07
 11
1.3860269784927368
 21
-9.198434829711914
 31
2.2724270820617676e-07
 12
1.07443106174469
 22
-9.198434829711914
 32
2.2724270820617676e-07
 13
1.07443106174469
 23
-9.198434829711914
 33
2.2724270820617676e-07
  0
3DFACE
  8
0
 10
0.9186328649520874
 20
-6.694074630737305
 30
2.2724270820617676e-07
 11
1.6976228952407837
 21
-6.694074630737305
 31
2.2724270820617676e-07
 12
1.61762273311615
 22
-7.111464500427246
 32
2.2724270820617676e-07
 13
1.61762273311615
 23
-7.111464500427246
 33
2.2724270820617676e-07
  0
3DFACE
  8
0
 10
1.07443106174469
 20
-9.198434829711914
 30
2.2724270820617676e-07
 11
0.9186328649520874
 21
-6.694074630737305
 31
2.2724270820617676e-07
 12
1.61762273311615
 22
-7.111464500427246
 32
2.2724270820617676e-07
 13
1.61762273311615
 23
-7.111464500427246
 33
2.2724270820617676e-07
  0
3DFACE
  8
0
 10
1.6176226139068604
 20
-4.707524299621582
 30
2.2724270820617676e-07
 11
1.6976227760314941
 21
-4.707524299621582
 31
2.2724270820617676e-07
 12
1.6976227760314941
 22
-5.0909743309021
 32
2.2724270820617676e-07
 13
1.6976227760314941
 23
-5.0909743309021
 33
2.2724270820617676e-07
  0
3DFACE
  8
0
 10
1.6176226139068604
 20
-5.508364200592041
 30
2.2724270820617676e-07
 11
1.6976227760314941
 21
-5.508364200592041
 31
2.2724270820617676e-07
 12
1.6976227760314941
 22
-5.859284400939941
 32
2.2724270820617676e-07
 13
1.6976227760314941
 23
-5.859284400939941
 33
2.2724270820617676e-07
  0
3DFACE
  8
0
 10
1.6176226139068604
 20
-4.707524299621582
 30
2.2724270820617676e-07
 11
1.6976227760314941
 21
-5.0909743309021
 31
2.2724270820617676e-07
 12
1.6176226139068604
 22
-5.0909743309021
 32
2.2724270820617676e-07
 13
1.6176226139068604
 23
-5.0909743309021
 33
2.2724270820617676e-07
  0
3DFACE
  8
0
 10
1.6176226139068604
 20
-5.508364200592041
 30
2.2724270820617676e-07
 11
1.6976227760314941
 21
-5.859284400939941
 31
2.2724270820617676e-07
 12
1.6176226139068604
 22
-5.859284400939941
 32
2.2724270820617676e-07
 13
1.6176226139068604
 23
-5.859284400939941
 33
2.2724270820617676e-07
  0
3DFACE
  8
0
 10
1.6176226139068604
 20
-4.707524299621582
 30
2.2724270820617676e-07
 11
1.6176226139068604
 21
-5.0909743309021
 31
2.2724270820617676e-07
 12
1.6176226139068604
 22
-5.508364200592041
 32
2.2724270820617676e-07
 13
1.6176226139068604
 23
-5.508364200592041
 33
2.2724270820617676e-07
  0
3DFACE
  8
0
 10
1.6976226568222046
 20
-4.109714508056641
 30
2.2724270820617676e-07
 11
1.6976227760314941
 21
-4.337174415588379
 31
2.2724270820617676e-07
 12
1.6176226139068604
 22
-4.337174415588379
 32
2.2724270820617676e-07
 13
1.6176226139068604
 23
-4.337174415588379
 33
2.2724270820617676e-07
  0
3DFACE
  8
0
 10
1.6176226139068604
 20
-4.337174415588379
 30
2.2724270820617676e-07
 11
1.6176226139068604
 21
-4.707524299621582
 31
2.2724270820617676e-07
 12
1.6176226139068604
 22
-5.508364200592041
 32
2.2724270820617676e-07
 13
1.6176226139068604
 23
-5.508364200592041
 33
2.2724270820617676e-07
  0
3DFACE
  8
0
 10
1.6176226139068604
 20
-5.508364200592041
 30
2.2724270820617676e-07
 11
1.6176226139068604
 21
-5.859284400939941
 31
2.2724270820617676e-07
 12
1.61762273311615
 22
-6.276684761047363
 32
2.2724270820617676e-07
 13
1.61762273311615
 23
-6.276684761047363
 33
2.2724270820617676e-07
  0
3DFACE
  8
0
 10
1.61762273311615
 20
-6.276684761047363
 30
2.2724270820617676e-07
 11
1.6976228952407837
 21
-6.276684284210205
 31
2.2724270820617676e-07
 12
1.6976228952407837
 22
-6.694074630737305
 32
2.2724270820617676e-07
 13
1.6976228952407837
 23
-6.694074630737305
 33
2.2724270820617676e-07
  0
3DFACE
  8
0
 10
1.6976228952407837
 20
-6.694074630737305
 30
2.2724270820617676e-07
 11
0.9186328649520874
 21
-6.694074630737305
 31
2.2724270820617676e-07
 12
0.9186326861381531
 22
-4.109714508056641
 32
2.2724270820617676e-07
 13
0.9186326861381531
 23
-4.109714508056641
 33
2.2724270820617676e-07
  0
3DFACE
  8
0
 10
0.9186326861381531
 20
-4.109714508056641
 30
2.2724270820617676e-07
 11
1.0744305849075317
 21
-4.109714508056641
 31
2.2724270820617676e-07
 12
1.0744305849075317
 22
-4.189714431762695
 32
2.2724270820617676e-07
 13
1.0744305849075317
 23
-4.189714431762695
 33
2.2724270820617676e-07
  0
3DFACE
  8
0
 10
1.2302285432815552
 20
-4.189714431762695
 30
2.2724270820617676e-07
 11
1.2302285432815552
 21
-4.109714508056641
 31
2.2724270820617676e-07
 12
1.3860265016555786
 22
-4.109714508056641
 32
2.2724270820617676e-07
 13
1.3860265016555786
 23
-4.109714508056641
 33
2.2724270820617676e-07
  0
3DFACE
  8
0
 10
1.6976228952407837
 20
-6.694074630737305
 30
2.2724270820617676e-07
 11
0.9186326861381531
 21
-4.109714508056641
 31
2.2724270820617676e-07
 12
1.0744305849075317
 22
-4.189714431762695
 32
2.2724270820617676e-07
 13
1.0744305849075317
 23
-4.189714431762695
 33
2.2724270820617676e-07
  0
3DFACE
  8
0
 10
1.2302285432815552
 20
-4.189714431762695
 30
2.2724270820617676e-07
 11
1.3860265016555786
 21
-4.109714508056641
 31
2.2724270820617676e-07
 12
1.3860265016555786
 22
-4.189714431762695
 32
2.2724270820617676e-07
 13
1.3860265016555786
 23
-4.189714431762695
 33
2.2724270820617676e-07
  0
3DFACE
  8
0
 10
1.61762273311615
 20
-6.276684761047363
 30
2.2724270820617676e-07
 11
1.6976228952407837
 21
-6.694074630737305
 31
2.2724270820617676e-07
 12
1.0744305849075317
 22
-4.189714431762695
 32
2.2724270820617676e-07
 13
1.0744305849075317
 23
-4.189714431762695
 33
2.2724270820617676e-07
  0
3DFACE
  8
0
 10
1.0744305849075317
 20
-4.189714431762695
 30
2.2724270820617676e-07
 11
1.2302285432815552
 21
-4.189714431762695
 31
2.2724270820617676e-07
 12
1.3860265016555786
 22
-4.189714431762695
 32
2.2724270820617676e-07
 13
1.3860265016555786
 23
-4.189714431762695
 33
2.2724270820617676e-07
  0
3DFACE
  8
0
 10
1.541824460029602
 20
-4.189714431762695
 30
2.2724270820617676e-07
 11
1.541824460029602
 21
-4.109714508056641
 31
2.2724270820617676e-07
 12
1.6976226568222046
 22
-4.109714508056641
 32
2.2724270820617676e-07
 13
1.6976226568222046
 23
-4.109714508056641
 33
2.2724270820617676e-07
  0
3DFACE
  8
0
 10
1.61762273311615
 20
-6.276684761047363
 30
2.2724270820617676e-07
 11
1.0744305849075317
 21
-4.189714431762695
 31
2.2724270820617676e-07
 12
1.3860265016555786
 22
-4.189714431762695
 32
2.2724270820617676e-07
 13
1.3860265016555786
 23
-4.189714431762695
 33
2.2724270820617676e-07
  0
3DFACE
  8
0
 10
1.541824460029602
 20
-4.189714431762695
 30
2.2724270820617676e-07
 11
1.6976226568222046
 21
-4.109714508056641
 31
2.2724270820617676e-07
 12
1.6176226139068604
 22
-4.337174415588379
 32
2.2724270820617676e-07
 13
1.6176226139068604
 23
-4.337174415588379
 33
2.2724270820617676e-07
  0
3DFACE
  8
0
 10
1.61762273311615
 20
-6.276684761047363
 30
2.2724270820617676e-07
 11
1.3860265016555786
 21
-4.189714431762695
 31
2.2724270820617676e-07
 12
1.541824460029602
 22
-4.189714431762695
 32
2.2724270820617676e-07
 13
1.541824460029602
 23
-4.189714431762695
 33
2.2724270820617676e-07
  0
3DFACE
  8
0
 10
1.6176226139068604
 20
-4.337174415588379
 30
2.2724270820617676e-07
 11
1.6176226139068604
 21
-5.508364200592041
 31
2.2724270820617676e-07
 12
1.61762273311615
 22
-6.276684761047363
 32
2.2724270820617676e-07
 13
1.61762273311615
 23
-6.276684761047363
 33
2.2724270820617676e-07
  0
3DFACE
  8
0
 10
1.61762273311615
 20
-6.276684761047363
 30
2.2724270820617676e-07
 11
1.541824460029602
 21
-4.189714431762695
 31
2.2724270820617676e-07
 12
1.6176226139068604
 22
-4.337174415588379
 32
2.2724270820617676e-07
 13
1.6176226139068604
 23
-4.337174415588379
 33
2.2724270820617676e-07
  0
3DFACE
  8
0
 10
-1.7230581045150757
 20
1.6807847023010254
 30
-7.312324896702194e-07
 11
-1.5672600269317627
 21
1.6807847023010254
 31
-8.045651611610083e-07
 12
-1.5672574043273926
 22
0.33672571182250977
 32
-1.7433379753128975e-06
 13
-1.5672574043273926
 23
0.33672571182250977
 33
-1.7433379753128975e-06
  0
3DFACE
  8
0
 10
-1.8788564205169678
 20
1.76078462600708
 30
-2.44392595050158e-07
 11
-1.7230581045150757
 21
1.76078462600708
 31
-3.177252665409469e-07
 12
-1.7230581045150757
 22
1.6807847023010254
 32
-7.312324896702194e-07
 13
-1.7230581045150757
 23
1.6807847023010254
 33
-7.312324896702194e-07
  0
3DFACE
  8
0
 10
-2.1904525756835938
 20
1.76078462600708
 30
-9.400193334840878e-08
 11
-2.0346546173095703
 21
1.76078462600708
 31
-1.7105989513765962e-07
 12
-2.034654378890991
 22
1.6807847023010254
 32
-5.845671466886415e-07
 13
-2.034654378890991
 23
1.6807847023010254
 33
-5.845671466886415e-07
  0
3DFACE
  8
0
 10
-1.8788561820983887
 20
1.6807847023010254
 30
-6.578998181794304e-07
 11
-1.8788564205169678
 21
1.76078462600708
 31
-2.44392595050158e-07
 12
-1.7230581045150757
 22
1.6807847023010254
 32
-7.312324896702194e-07
 13
-1.7230581045150757
 23
1.6807847023010254
 33
-7.312324896702194e-07
  0
3DFACE
  8
0
 10
-2.1904525756835938
 20
1.6807847023010254
 30
-5.075091280559718e-07
 11
-2.1904525756835938
 21
1.76078462600708
 31
-9.400193334840878e-08
 12
-2.034654378890991
 22
1.6807847023010254
 32
-5.845671466886415e-07
 13
-2.034654378890991
 23
1.6807847023010254
 33
-5.845671466886415e-07
  0
3DFACE
  8
0
 10
-2.034654378890991
 20
1.6807847023010254
 30
-5.845671466886415e-07
 11
-1.8788561820983887
 21
1.6807847023010254
 31
-6.578998181794304e-07
 12
-1.7230581045150757
 22
1.6807847023010254
 32
-7.312324896702194e-07
 13
-1.7230581045150757
 23
1.6807847023010254
 33
-7.312324896702194e-07
  0
3DFACE
  8
0
 10
0.2126401662826538
 20
-1.5680568218231201
 30
9.61759042183985e-07
 11
0.2926403284072876
 21
-1.5680568218231201
 31
-1.816403710108716e-06
 12
0.2926408052444458
 22
-1.7239997386932373
 32
-1.8015025489148684e-06
 13
0.2926408052444458
 23
-1.7239997386932373
 33
-1.8015025489148684e-06
  0
3DFACE
  8
0
 10
-2.034654378890991
 20
1.6807847023010254
 30
-5.845671466886415e-07
 11
-1.7230581045150757
 21
1.6807847023010254
 31
-7.312324896702194e-07
 12
-1.5672574043273926
 22
0.33672571182250977
 32
-1.7433379753128975e-06
 13
-1.5672574043273926
 23
0.33672571182250977
 33
-1.7433379753128975e-06
  0
3DFACE
  8
0
 10
-0.9950294494628906
 20
-0.8820247650146484
 30
6.043172788849915e-07
 11
0.2126401662826538
 21
-1.5680568218231201
 31
9.61759042183985e-07
 12
0.2926408052444458
 22
-1.7239997386932373
 32
-1.8015025489148684e-06
 13
0.2926408052444458
 23
-1.7239997386932373
 33
-1.8015025489148684e-06
  0
3DFACE
  8
0
 10
-2.1904525756835938
 20
1.6807847023010254
 30
-5.075091280559718e-07
 11
-2.034654378890991
 21
1.6807847023010254
 31
-5.845671466886415e-07
 12
-1.5672574043273926
 22
0.33672571182250977
 32
-1.7433379753128975e-06
 13
-1.5672574043273926
 23
0.33672571182250977
 33
-1.7433379753128975e-06
  0
3DFACE
  8
0
 10
-0.9950294494628906
 20
-0.8820247650146484
 30
6.043172788849915e-07
 11
0.2926408052444458
 21
-1.7239997386932373
 31
-1.8015025489148684e-06
 12
0.2126408815383911
 22
-1.7239997386932373
 32
9.766602033778327e-07
 13
0.2126408815383911
 23
-1.7239997386932373
 33
9.766602033778327e-07
  0
3DFACE
  8
0
 10
-2.3462507724761963
 20
1.6807847023010254
 30
-4.341764565651829e-07
 11
-2.1904525756835938
 21
1.6807847023010254
 31
-5.075091280559718e-07
 12
-1.5672574043273926
 22
0.33672571182250977
 32
-1.7433379753128975e-06
 13
-1.5672574043273926
 23
0.33672571182250977
 33
-1.7433379753128975e-06
  0
3DFACE
  8
0
 10
-0.9950294494628906
 20
-0.8820247650146484
 30
6.043172788849915e-07
 11
0.2126408815383911
 21
-1.7239997386932373
 31
9.766602033778327e-07
 12
0.21264135837554932
 22
-1.879943609237671
 32
9.91561478258518e-07
 13
0.21264135837554932
 23
-1.879943609237671
 33
9.91561478258518e-07
  0
3DFACE
  8
0
 10
-2.3462507724761963
 20
1.6807847023010254
 30
-4.341764565651829e-07
 11
-1.5672574043273926
 21
0.33672571182250977
 31
-1.7433379753128975e-06
 12
-0.9950294494628906
 22
-0.8820247650146484
 32
6.043172788849915e-07
 13
-0.9950294494628906
 23
-0.8820247650146484
 33
6.043172788849915e-07
  0
3DFACE
  8
0
 10
-2.2662506103515625
 20
1.3145527839660645
 30
-8.505051596330304e-07
 11
-2.3462507724761963
 21
1.3145527839660645
 31
-4.2300058566979715e-07
 12
-2.3462507724761963
 22
1.6807847023010254
 32
-4.341764565651829e-07
 13
-2.3462507724761963
 23
1.6807847023010254
 33
-4.341764565651829e-07
  0
3DFACE
  8
0
 10
-2.346250295639038
 20
0.5820884704589844
 30
-3.969234967371449e-07
 11
-2.346250534057617
 21
0.9483203887939453
 31
-4.11824686352702e-07
 12
-2.2662503719329834
 22
0.9483203887939453
 32
-8.393292887376447e-07
 13
-2.2662503719329834
 23
0.9483203887939453
 33
-8.393292887376447e-07
  0
3DFACE
  8
0
 10
-2.2662506103515625
 20
1.3145527839660645
 30
-8.505051596330304e-07
 11
-2.3462507724761963
 21
1.6807847023010254
 31
-4.341764565651829e-07
 12
-0.9950294494628906
 22
-0.8820247650146484
 32
6.043172788849915e-07
 13
-0.9950294494628906
 23
-0.8820247650146484
 33
6.043172788849915e-07
  0
3DFACE
  8
0
 10
-2.2662503719329834
 20
0.5820884704589844
 30
-8.244280707003782e-07
 11
-2.346250295639038
 21
0.5820884704589844
 31
-3.969234967371449e-07
 12
-2.2662503719329834
 22
0.9483203887939453
 32
-8.393292887376447e-07
 13
-2.2662503719329834
 23
0.9483203887939453
 33
-8.393292887376447e-07
  0
3DFACE
  8
0
 10
-2.2662503719329834
 20
0.9483203887939453
 30
-8.393292887376447e-07
 11
-2.2662506103515625
 21
1.3145527839660645
 31
-8.505051596330304e-07
 12
-0.9950294494628906
 22
-0.8820247650146484
 32
6.043172788849915e-07
 13
-0.9950294494628906
 23
-0.8820247650146484
 33
6.043172788849915e-07
  0
3DFACE
  8
0
 10
0.21264135837554932
 20
-1.879943609237671
 30
9.91561478258518e-07
 11
0.2926415205001831
 21
-1.8799426555633545
 31
-1.786601274034183e-06
 12
0.2926422357559204
 22
-2.035886526107788
 32
-1.7716999991534976e-06
 13
0.2926422357559204
 23
-2.035886526107788
 33
-1.7716999991534976e-06
  0
3DFACE
  8
0
 10
-2.2662503719329834
 20
0.5820884704589844
 30
-8.244280707003782e-07
 11
-2.2662503719329834
 21
0.9483203887939453
 31
-8.393292887376447e-07
 12
-0.9950294494628906
 22
-0.8820247650146484
 32
6.043172788849915e-07
 13
-0.9950294494628906
 23
-0.8820247650146484
 33
6.043172788849915e-07
  0
3DFACE
  8
0
 10
-0.9950294494628906
 20
-0.8820247650146484
 30
6.043172788849915e-07
 11
0.21264135837554932
 21
-1.879943609237671
 31
9.91561478258518e-07
 12
0.2926422357559204
 22
-2.035886526107788
 32
-1.7716999991534976e-06
 13
0.2926422357559204
 23
-2.035886526107788
 33
-1.7716999991534976e-06
  0
3DFACE
  8
0
 10
0.21264278888702393
 20
-2.1918294429779053
 30
1.0213640280198888e-06
 11
0.2926429510116577
 21
-2.1918294429779053
 31
-1.7567987242728123e-06
 12
0.292643666267395
 22
-2.3477723598480225
 32
-1.7418974493921269e-06
 13
0.292643666267395
 23
-2.3477723598480225
 33
-1.7418974493921269e-06
  0
3DFACE
  8
0
 10
-0.9950294494628906
 20
-0.8820247650146484
 30
6.043172788849915e-07
 11
0.2926422357559204
 21
-2.035886526107788
 31
-1.7716999991534976e-06
 12
0.21264231204986572
 22
-2.035886526107788
 32
1.0064627531392034e-06
 13
0.21264231204986572
 23
-2.035886526107788
 33
1.0064627531392034e-06
  0
3DFACE
  8
0
 10
0.21264278888702393
 20
-2.1918294429779053
 30
1.0213640280198888e-06
 11
0.292643666267395
 21
-2.3477723598480225
 31
-1.7418974493921269e-06
 12
-0.09010732173919678
 22
-2.3477694988250732
 32
2.9019662406426505e-07
 13
-0.09010732173919678
 23
-2.3477694988250732
 33
2.9019662406426505e-07
  0
3DFACE
  8
0
 10
-0.9950294494628906
 20
-0.8820247650146484
 30
6.043172788849915e-07
 11
0.21264231204986572
 21
-2.035886526107788
 31
1.0064627531392034e-06
 12
0.21264278888702393
 22
-2.1918294429779053
 32
1.0213640280198888e-06
 13
0.21264278888702393
 23
-2.1918294429779053
 33
1.0213640280198888e-06
  0
3DFACE
  8
0
 10
-2.2662503719329834
 20
0.21585607528686523
 30
-8.169774901034543e-07
 11
-2.2662503719329834
 21
0.5820884704589844
 31
-8.244280707003782e-07
 12
-0.9950294494628906
 22
-0.8820247650146484
 32
6.043172788849915e-07
 13
-0.9950294494628906
 23
-0.8820247650146484
 33
6.043172788849915e-07
  0
3DFACE
  8
0
 10
-2.346250057220459
 20
-0.882840633392334
 30
-3.559452750323544e-07
 11
-2.346250295639038
 21
0.21585607528686523
 31
-3.8947291614022106e-07
 12
-2.2662503719329834
 22
0.21585607528686523
 32
-8.169774901034543e-07
 13
-2.2662503719329834
 23
0.21585607528686523
 33
-8.169774901034543e-07
  0
3DFACE
  8
0
 10
-2.346250057220459
 20
-1.6153056621551514
 30
-3.373187951183354e-07
 11
-2.346250057220459
 21
-1.249072790145874
 31
-3.4476940413696866e-07
 12
-2.2662501335144043
 22
-1.249072790145874
 32
-7.722740065219114e-07
 13
-2.2662501335144043
 23
-1.249072790145874
 33
-7.722740065219114e-07
  0
3DFACE
  8
0
 10
-2.2662501335144043
 20
-0.882840633392334
 30
-7.834498774172971e-07
 11
-2.346250057220459
 21
-0.882840633392334
 31
-3.559452750323544e-07
 12
-2.2662503719329834
 22
0.21585607528686523
 32
-8.169774901034543e-07
 13
-2.2662503719329834
 23
0.21585607528686523
 33
-8.169774901034543e-07
  0
3DFACE
  8
0
 10
-2.266249895095825
 20
-1.6153056621551514
 30
-7.648234259249875e-07
 11
-2.346250057220459
 21
-1.6153056621551514
 31
-3.373187951183354e-07
 12
-2.2662501335144043
 22
-1.249072790145874
 32
-7.722740065219114e-07
 13
-2.2662501335144043
 23
-1.249072790145874
 33
-7.722740065219114e-07
  0
3DFACE
  8
0
 10
-2.2662501335144043
 20
-0.882840633392334
 30
-7.834498774172971e-07
 11
-2.2662503719329834
 21
0.21585607528686523
 31
-8.169774901034543e-07
 12
-0.9950294494628906
 22
-0.8820247650146484
 32
6.043172788849915e-07
 13
-0.9950294494628906
 23
-0.8820247650146484
 33
6.043172788849915e-07
  0
3DFACE
  8
0
 10
-2.266249895095825
 20
-1.6153056621551514
 30
-7.648234259249875e-07
 11
-2.2662501335144043
 21
-1.249072790145874
 31
-7.722740065219114e-07
 12
-2.2662501335144043
 22
-0.882840633392334
 32
-7.834498774172971e-07
 13
-2.2662501335144043
 23
-0.882840633392334
 33
-7.834498774172971e-07
  0
3DFACE
  8
0
 10
-2.346250057220459
 20
-2.3477694988250732
 30
-3.11241763029102e-07
 11
-2.346250057220459
 21
-1.981536626815796
 31
-3.2241763392448775e-07
 12
-2.266249895095825
 22
-1.981536626815796
 32
-7.499222647311399e-07
 13
-2.266249895095825
 23
-1.981536626815796
 33
-7.499222647311399e-07
  0
3DFACE
  8
0
 10
-2.266249895095825
 20
-1.981536626815796
 30
-7.499222647311399e-07
 11
-2.266249895095825
 21
-1.6153056621551514
 31
-7.648234259249875e-07
 12
-2.2662501335144043
 22
-0.882840633392334
 32
-7.834498774172971e-07
 13
-2.2662501335144043
 23
-0.882840633392334
 33
-7.834498774172971e-07
  0
3DFACE
  8
0
 10
-2.2662501335144043
 20
-0.882840633392334
 30
-7.834498774172971e-07
 11
-0.9950294494628906
 21
-0.8820247650146484
 31
6.043172788849915e-07
 12
0.21264278888702393
 22
-2.1918294429779053
 32
1.0213640280198888e-06
 13
0.21264278888702393
 23
-2.1918294429779053
 33
1.0213640280198888e-06
  0
3DFACE
  8
0
 10
0.21264278888702393
 20
-2.1918294429779053
 30
1.0213640280198888e-06
 11
-0.09010732173919678
 21
-2.3477694988250732
 31
2.9019662406426505e-07
 12
-0.09010732173919678
 22
-2.2677695751190186
 32
9.532982971904858e-07
 13
-0.09010732173919678
 23
-2.2677695751190186
 33
9.532982971904858e-07
  0
3DFACE
  8
0
 10
-0.4099687337875366
 20
-2.2677695751190186
 30
8.714729347047978e-07
 11
-0.4099687337875366
 21
-2.3477694988250732
 31
2.0837127578943182e-07
 12
-1.0668047666549683
 22
-2.3477694988250732
 32
1.978482444542351e-08
 13
-1.0668047666549683
 23
-2.3477694988250732
 33
1.978482444542351e-08
  0
3DFACE
  8
0
 10
0.21264278888702393
 20
-2.1918294429779053
 30
1.0213640280198888e-06
 11
-0.09010732173919678
 21
-2.2677695751190186
 31
9.532982971904858e-07
 12
-0.4099687337875366
 22
-2.2677695751190186
 32
8.714729347047978e-07
 13
-0.4099687337875366
 23
-2.2677695751190186
 33
8.714729347047978e-07
  0
3DFACE
  8
0
 10
-2.266249895095825
 20
-1.981536626815796
 30
-7.499222647311399e-07
 11
-2.2662501335144043
 21
-0.882840633392334
 31
-7.834498774172971e-07
 12
0.21264278888702393
 22
-2.1918294429779053
 32
1.0213640280198888e-06
 13
0.21264278888702393
 23
-2.1918294429779053
 33
1.0213640280198888e-06
  0
3DFACE
  8
0
 10
-2.026388645172119
 20
-2.3477694988250732
 30
-2.25691167088371e-07
 11
-2.346250057220459
 21
-2.3477694988250732
 31
-3.11241763029102e-07
 12
-2.266249895095825
 22
-1.981536626815796
 32
-7.499222647311399e-07
 13
-2.266249895095825
 23
-1.981536626815796
 33
-7.499222647311399e-07
  0
3DFACE
  8
0
 10
-1.3866660594940186
 20
-2.3477694988250732
 30
-6.204049896041397e-08
 11
-1.7065273523330688
 21
-2.3477694988250732
 31
-1.4386583302439249e-07
 12
-1.7065273523330688
 22
-2.2677695751190186
 32
5.192358685235376e-07
 13
-1.7065273523330688
 23
-2.2677695751190186
 33
5.192358685235376e-07
  0
3DFACE
  8
0
 10
-2.026388645172119
 20
-2.2677695751190186
 30
4.374105060378497e-07
 11
-2.026388645172119
 21
-2.3477694988250732
 31
-2.25691167088371e-07
 12
-2.266249895095825
 22
-1.981536626815796
 32
-7.499222647311399e-07
 13
-2.266249895095825
 23
-1.981536626815796
 33
-7.499222647311399e-07
  0
3DFACE
  8
0
 10
-1.3866660594940186
 20
-2.2677695751190186
 30
6.010611741658067e-07
 11
-1.3866660594940186
 21
-2.3477694988250732
 31
-6.204049896041397e-08
 12
-1.7065273523330688
 22
-2.2677695751190186
 32
5.192358685235376e-07
 13
-1.7065273523330688
 23
-2.2677695751190186
 33
5.192358685235376e-07
  0
3DFACE
  8
0
 10
-1.7065273523330688
 20
-2.2677695751190186
 30
5.192358685235376e-07
 11
-2.026388645172119
 21
-2.2677695751190186
 31
4.374105060378497e-07
 12
-2.266249895095825
 22
-1.981536626815796
 32
-7.499222647311399e-07
 13
-2.266249895095825
 23
-1.981536626815796
 33
-7.499222647311399e-07
  0
3DFACE
  8
0
 10
-2.266249895095825
 20
-1.981536626815796
 30
-7.499222647311399e-07
 11
0.21264278888702393
 21
-2.1918294429779053
 31
1.0213640280198888e-06
 12
-0.4099687337875366
 22
-2.2677695751190186
 32
8.714729347047978e-07
 13
-0.4099687337875366
 23
-2.2677695751190186
 33
8.714729347047978e-07
  0
3DFACE
  8
0
 10
-0.4099687337875366
 20
-2.2677695751190186
 30
8.714729347047978e-07
 11
-1.0668047666549683
 21
-2.3477694988250732
 31
1.978482444542351e-08
 12
-1.0668047666549683
 22
-2.2677695751190186
 32
6.828864798080758e-07
 13
-1.0668047666549683
 23
-2.2677695751190186
 33
6.828864798080758e-07
  0
3DFACE
  8
0
 10
-1.0668047666549683
 20
-2.2677695751190186
 30
6.828864798080758e-07
 11
-1.3866660594940186
 21
-2.2677695751190186
 31
6.010611741658067e-07
 12
-1.7065273523330688
 22
-2.2677695751190186
 32
5.192358685235376e-07
 13
-1.7065273523330688
 23
-2.2677695751190186
 33
5.192358685235376e-07
  0
3DFACE
  8
0
 10
-2.266249895095825
 20
-1.981536626815796
 30
-7.499222647311399e-07
 11
-0.4099687337875366
 21
-2.2677695751190186
 31
8.714729347047978e-07
 12
-1.0668047666549683
 22
-2.2677695751190186
 32
6.828864798080758e-07
 13
-1.0668047666549683
 23
-2.2677695751190186
 33
6.828864798080758e-07
  0
3DFACE
  8
0
 10
-1.0668047666549683
 20
-2.2677695751190186
 30
6.828864798080758e-07
 11
-1.7065273523330688
 21
-2.2677695751190186
 31
5.192358685235376e-07
 12
-2.266249895095825
 22
-1.981536626815796
 32
-7.499222647311399e-07
 13
-2.266249895095825
 23
-1.981536626815796
 33
-7.499222647311399e-07
  0
3DFACE
  8
0
 10
1.1027328968048096
 20
-3.8580470085144043
 30
-2.2724270820617676e-07
 11
1.1027328968048096
 21
-3.938046932220459
 31
-6.407499313354492e-07
 12
1.258530855178833
 22
-3.938046932220459
 32
-7.37607479095459e-07
 13
1.258530855178833
 23
-3.938046932220459
 33
-7.37607479095459e-07
  0
3DFACE
  8
0
 10
0.9469323754310608
 20
-2.5139880180358887
 30
8.083879947662354e-07
 11
0.946934700012207
 21
-3.8580470085144043
 31
-1.30385160446167e-07
 12
1.1027328968048096
 22
-3.8580470085144043
 32
-2.2724270820617676e-07
 13
1.1027328968048096
 23
-3.8580470085144043
 33
-2.2724270820617676e-07
  0
3DFACE
  8
0
 10
-0.9129658341407776
 20
-0.45326194167137146
 30
1.1473894119262695e-06
 11
-0.9129653573036194
 21
-0.6092057824134827
 31
1.1622905731201172e-06
 12
-0.8329654335975647
 22
-0.6092048287391663
 32
-1.6279518604278564e-06
 13
-0.8329654335975647
 23
-0.6092048287391663
 33
-1.6279518604278564e-06
  0
3DFACE
  8
0
 10
0.9469323754310608
 20
-2.5139880180358887
 30
8.083879947662354e-07
 11
1.1027328968048096
 21
-3.8580470085144043
 31
-2.2724270820617676e-07
 12
1.258530855178833
 22
-3.938046932220459
 32
-7.37607479095459e-07
 13
1.258530855178833
 23
-3.938046932220459
 33
-7.37607479095459e-07
  0
3DFACE
  8
0
 10
-0.9129658341407776
 20
-0.45326194167137146
 30
1.1473894119262695e-06
 11
-0.8329654335975647
 21
-0.6092048287391663
 31
-1.6279518604278564e-06
 12
0.37470465898513794
 22
-1.295237421989441
 32
-1.4528632164001465e-06
 13
0.37470465898513794
 23
-1.295237421989441
 33
-1.4528632164001465e-06
  0
3DFACE
  8
0
 10
0.9469323754310608
 20
-2.5139880180358887
 30
8.083879947662354e-07
 11
1.258530855178833
 21
-3.938046932220459
 31
-7.37607479095459e-07
 12
1.258530855178833
 22
-3.8580470085144043
 32
-3.241002559661865e-07
 13
1.258530855178833
 23
-3.8580470085144043
 33
-3.241002559661865e-07
  0
3DFACE
  8
0
 10
-0.8329659104347229
 20
-0.45326194167137146
 30
-1.642853021621704e-06
 11
-0.9129658341407776
 21
-0.45326194167137146
 31
1.1473894119262695e-06
 12
0.37470465898513794
 22
-1.295237421989441
 32
-1.4528632164001465e-06
 13
0.37470465898513794
 23
-1.295237421989441
 33
-1.4528632164001465e-06
  0
3DFACE
  8
0
 10
0.9469323754310608
 20
-2.5139880180358887
 30
8.083879947662354e-07
 11
1.258530855178833
 21
-3.8580470085144043
 31
-3.241002559661865e-07
 12
1.4143290519714355
 22
-3.8580470085144043
 32
-4.209578037261963e-07
 13
1.4143290519714355
 23
-3.8580470085144043
 33
-4.209578037261963e-07
  0
3DFACE
  8
0
 10
-0.8329663872718811
 20
-0.2973190248012543
 30
-1.6577541828155518e-06
 11
-0.8329659104347229
 21
-0.45326194167137146
 31
-1.642853021621704e-06
 12
0.37470465898513794
 22
-1.295237421989441
 32
-1.4528632164001465e-06
 13
0.37470465898513794
 23
-1.295237421989441
 33
-1.4528632164001465e-06
  0
3DFACE
  8
0
 10
1.4143290519714355
 20
-3.8580470085144043
 30
-4.209578037261963e-07
 11
1.4143290519714355
 21
-3.938046932220459
 31
-8.344650268554688e-07
 12
1.570127248764038
 22
-3.938046932220459
 32
-9.350478649139404e-07
 13
1.570127248764038
 23
-3.938046932220459
 33
-9.350478649139404e-07
  0
3DFACE
  8
0
 10
-0.9129672646522522
 20
-0.1413760930299759
 30
1.1175870895385742e-06
 11
-0.9129665493965149
 21
-0.2973190248012543
 31
1.1324882507324219e-06
 12
-0.8329663872718811
 22
-0.2973190248012543
 32
-1.6577541828155518e-06
 13
-0.8329663872718811
 23
-0.2973190248012543
 33
-1.6577541828155518e-06
  0
3DFACE
  8
0
 10
0.9469323754310608
 20
-2.5139880180358887
 30
8.083879947662354e-07
 11
1.4143290519714355
 21
-3.8580470085144043
 31
-4.209578037261963e-07
 12
1.570127248764038
 22
-3.938046932220459
 32
-9.350478649139404e-07
 13
1.570127248764038
 23
-3.938046932220459
 33
-9.350478649139404e-07
  0
3DFACE
  8
0
 10
-0.9129672646522522
 20
-0.1413760930299759
 30
1.1175870895385742e-06
 11
-0.8329663872718811
 21
-0.2973190248012543
 31
-1.6577541828155518e-06
 12
0.37470465898513794
 22
-1.295237421989441
 32
-1.4528632164001465e-06
 13
0.37470465898513794
 23
-1.295237421989441
 33
-1.4528632164001465e-06
  0
3DFACE
  8
0
 10
0.9469323754310608
 20
-2.5139880180358887
 30
8.083879947662354e-07
 11
1.570127248764038
 21
-3.938046932220459
 31
-9.350478649139404e-07
 12
1.5701271295547485
 22
-3.8580470085144043
 32
-5.21540641784668e-07
 13
1.5701271295547485
 23
-3.8580470085144043
 33
-5.21540641784668e-07
  0
3DFACE
  8
0
 10
-0.8329673409461975
 20
-0.14137513935565948
 30
-1.6726553440093994e-06
 11
-0.9129672646522522
 21
-0.1413760930299759
 31
1.1175870895385742e-06
 12
0.37470465898513794
 22
-1.295237421989441
 32
-1.4528632164001465e-06
 13
0.37470465898513794
 23
-1.295237421989441
 33
-1.4528632164001465e-06
  0
3DFACE
  8
0
 10
0.9469323754310608
 20
-2.5139880180358887
 30
8.083879947662354e-07
 11
1.5701271295547485
 21
-3.8580470085144043
 31
-5.21540641784668e-07
 12
1.7259252071380615
 22
-3.8580470085144043
 32
-6.183981895446777e-07
 13
1.7259252071380615
 23
-3.8580470085144043
 33
-6.183981895446777e-07
  0
3DFACE
  8
0
 10
-0.8329677581787109
 20
0.014567771926522255
 30
-1.687556505203247e-06
 11
-0.8329673409461975
 21
-0.14137513935565948
 31
-1.6726553440093994e-06
 12
0.37470465898513794
 22
-1.295237421989441
 32
-1.4528632164001465e-06
 13
0.37470465898513794
 23
-1.295237421989441
 33
-1.4528632164001465e-06
  0
3DFACE
  8
0
 10
0.37470465898513794
 20
-1.295237421989441
 30
-1.4528632164001465e-06
 11
0.9469323754310608
 21
-2.5139880180358887
 31
8.083879947662354e-07
 12
1.7259252071380615
 22
-3.8580470085144043
 32
-6.183981895446777e-07
 13
1.7259252071380615
 23
-3.8580470085144043
 33
-6.183981895446777e-07
  0
3DFACE
  8
0
 10
1.7259252071380615
 20
-3.8580470085144043
 30
-6.183981895446777e-07
 11
1.725925326347351
 21
-3.491814613342285
 31
-6.295740604400635e-07
 12
1.6459252834320068
 22
-3.491814613342285
 32
-1.8998980522155762e-07
 13
1.6459252834320068
 23
-3.491814613342285
 33
-1.8998980522155762e-07
  0
3DFACE
  8
0
 10
1.6459252834320068
 20
-3.125582695007324
 30
-2.0116567611694336e-07
 11
1.7259252071380615
 21
-3.125582695007324
 31
-6.407499313354492e-07
 12
1.725925087928772
 22
-2.7593507766723633
 32
-6.556510925292969e-07
 13
1.725925087928772
 23
-2.7593507766723633
 33
-6.556510925292969e-07
  0
3DFACE
  8
0
 10
0.37470465898513794
 20
-1.295237421989441
 30
-1.4528632164001465e-06
 11
1.7259252071380615
 21
-3.8580470085144043
 31
-6.183981895446777e-07
 12
1.6459252834320068
 22
-3.491814613342285
 32
-1.8998980522155762e-07
 13
1.6459252834320068
 23
-3.491814613342285
 33
-1.8998980522155762e-07
  0
3DFACE
  8
0
 10
1.6459252834320068
 20
-3.125582695007324
 30
-2.0116567611694336e-07
 11
1.725925087928772
 21
-2.7593507766723633
 31
-6.556510925292969e-07
 12
1.6459251642227173
 22
-2.7593507766723633
 32
-2.1606683731079102e-07
 13
1.6459251642227173
 23
-2.7593507766723633
 33
-2.1606683731079102e-07
  0
3DFACE
  8
0
 10
0.37470465898513794
 20
-1.295237421989441
 30
-1.4528632164001465e-06
 11
1.6459252834320068
 21
-3.491814613342285
 31
-1.8998980522155762e-07
 12
1.6459252834320068
 22
-3.125582695007324
 32
-2.0116567611694336e-07
 13
1.6459252834320068
 23
-3.125582695007324
 33
-2.0116567611694336e-07
  0
3DFACE
  8
0
 10
-0.912968635559082
 20
0.1705106943845749
 30
1.087784767150879e-06
 11
-0.9129679203033447
 21
0.014566820114850998
 31
1.1026859283447266e-06
 12
-0.8329677581787109
 22
0.014567771926522255
 32
-1.687556505203247e-06
 13
-0.8329677581787109
 23
0.014567771926522255
 33
-1.687556505203247e-06
  0
3DFACE
  8
0
 10
0.37470465898513794
 20
-1.295237421989441
 30
-1.4528632164001465e-06
 11
1.6459252834320068
 21
-3.125582695007324
 31
-2.0116567611694336e-07
 12
1.6459251642227173
 22
-2.7593507766723633
 32
-2.1606683731079102e-07
 13
1.6459251642227173
 23
-2.7593507766723633
 33
-2.1606683731079102e-07
  0
3DFACE
  8
0
 10
-0.912968635559082
 20
0.1705106943845749
 30
1.087784767150879e-06
 11
-0.8329677581787109
 21
0.014567771926522255
 31
-1.687556505203247e-06
 12
0.37470465898513794
 22
-1.295237421989441
 32
-1.4528632164001465e-06
 13
0.37470465898513794
 23
-1.295237421989441
 33
-1.4528632164001465e-06
  0
3DFACE
  8
0
 10
-0.5302174091339111
 20
0.09050789475440979
 30
-1.6652047634124756e-06
 11
-0.5302174091339111
 21
0.17050781846046448
 31
-1.0021030902862549e-06
 12
-0.912968635559082
 22
0.1705106943845749
 32
1.087784767150879e-06
 13
-0.912968635559082
 23
0.1705106943845749
 33
1.087784767150879e-06
  0
3DFACE
  8
0
 10
0.4464801251888275
 20
0.17050780355930328
 30
-8.791685104370117e-07
 11
-0.21035626530647278
 21
0.17050781846046448
 31
-9.685754776000977e-07
 12
-0.21035626530647278
 22
0.0905078873038292
 32
-1.6316771507263184e-06
 13
-0.21035626530647278
 23
0.0905078873038292
 33
-1.6316771507263184e-06
  0
3DFACE
  8
0
 10
-0.5302174091339111
 20
0.09050789475440979
 30
-1.6652047634124756e-06
 11
-0.912968635559082
 21
0.1705106943845749
 31
1.087784767150879e-06
 12
0.37470465898513794
 22
-1.295237421989441
 32
-1.4528632164001465e-06
 13
0.37470465898513794
 23
-1.295237421989441
 33
-1.4528632164001465e-06
  0
3DFACE
  8
0
 10
0.4464801251888275
 20
0.090507872402668
 30
-1.5422701835632324e-06
 11
0.4464801251888275
 21
0.17050780355930328
 31
-8.791685104370117e-07
 12
-0.21035626530647278
 22
0.0905078873038292
 32
-1.6316771507263184e-06
 13
-0.21035626530647278
 23
0.0905078873038292
 33
-1.6316771507263184e-06
  0
3DFACE
  8
0
 10
-0.21035626530647278
 20
0.0905078873038292
 30
-1.6316771507263184e-06
 11
-0.5302174091339111
 21
0.09050789475440979
 31
-1.6652047634124756e-06
 12
0.37470465898513794
 22
-1.295237421989441
 32
-1.4528632164001465e-06
 13
0.37470465898513794
 23
-1.295237421989441
 33
-1.4528632164001465e-06
  0
3DFACE
  8
0
 10
0.37470465898513794
 20
-1.295237421989441
 30
-1.4528632164001465e-06
 11
1.6459251642227173
 21
-2.7593507766723633
 31
-2.1606683731079102e-07
 12
1.6459251642227173
 22
-2.393118381500244
 32
-2.2351741790771484e-07
 13
1.6459251642227173
 23
-2.393118381500244
 33
-2.2351741790771484e-07
  0
3DFACE
  8
0
 10
1.6459251642227173
 20
-2.393118381500244
 30
-2.2351741790771484e-07
 11
1.7259252071380615
 21
-2.393118381500244
 31
-6.631016731262207e-07
 12
1.725925087928772
 22
-1.2944220304489136
 32
-6.966292858123779e-07
 13
1.725925087928772
 23
-1.2944220304489136
 33
-6.966292858123779e-07
  0
3DFACE
  8
0
 10
1.6459251642227173
 20
-0.9281898736953735
 30
-2.682209014892578e-07
 11
1.725925087928772
 21
-0.9281898736953735
 31
-7.078051567077637e-07
 12
1.725925087928772
 22
-0.5619579553604126
 32
-7.152557373046875e-07
 13
1.725925087928772
 23
-0.5619579553604126
 33
-7.152557373046875e-07
  0
3DFACE
  8
0
 10
1.6459251642227173
 20
-2.393118381500244
 30
-2.2351741790771484e-07
 11
1.725925087928772
 21
-1.2944220304489136
 31
-6.966292858123779e-07
 12
1.6459250450134277
 22
-1.2944220304489136
 32
-2.5704503059387207e-07
 13
1.6459250450134277
 23
-1.2944220304489136
 33
-2.5704503059387207e-07
  0
3DFACE
  8
0
 10
1.6459251642227173
 20
-0.9281898736953735
 30
-2.682209014892578e-07
 11
1.725925087928772
 21
-0.5619579553604126
 31
-7.152557373046875e-07
 12
1.6459251642227173
 22
-0.5619579553604126
 32
-2.7567148208618164e-07
 13
1.6459251642227173
 23
-0.5619579553604126
 33
-2.7567148208618164e-07
  0
3DFACE
  8
0
 10
0.37470465898513794
 20
-1.295237421989441
 30
-1.4528632164001465e-06
 11
1.6459251642227173
 21
-2.393118381500244
 31
-2.2351741790771484e-07
 12
1.6459250450134277
 22
-1.2944220304489136
 32
-2.5704503059387207e-07
 13
1.6459250450134277
 23
-1.2944220304489136
 33
-2.5704503059387207e-07
  0
3DFACE
  8
0
 10
1.6459250450134277
 20
-1.2944220304489136
 30
-2.5704503059387207e-07
 11
1.6459251642227173
 21
-0.9281898736953735
 31
-2.682209014892578e-07
 12
1.6459251642227173
 22
-0.5619579553604126
 32
-2.7567148208618164e-07
 13
1.6459251642227173
 23
-0.5619579553604126
 33
-2.7567148208618164e-07
  0
3DFACE
  8
0
 10
1.6459251642227173
 20
-0.19572509825229645
 30
-2.905726432800293e-07
 11
1.725925087928772
 21
-0.19572509825229645
 31
-7.301568984985352e-07
 12
1.7259252071380615
 22
0.1705068200826645
 32
-7.413327693939209e-07
 13
1.7259252071380615
 23
0.1705068200826645
 33
-7.413327693939209e-07
  0
3DFACE
  8
0
 10
1.6459250450134277
 20
-1.2944220304489136
 30
-2.5704503059387207e-07
 11
1.6459251642227173
 21
-0.5619579553604126
 31
-2.7567148208618164e-07
 12
1.6459251642227173
 22
-0.19572509825229645
 32
-2.905726432800293e-07
 13
1.6459251642227173
 23
-0.19572509825229645
 33
-2.905726432800293e-07
  0
3DFACE
  8
0
 10
-0.21035626530647278
 20
0.0905078873038292
 30
-1.6316771507263184e-06
 11
0.37470465898513794
 21
-1.295237421989441
 31
-1.4528632164001465e-06
 12
1.6459250450134277
 22
-1.2944220304489136
 32
-2.5704503059387207e-07
 13
1.6459250450134277
 23
-1.2944220304489136
 33
-2.5704503059387207e-07
  0
3DFACE
  8
0
 10
0.7663413286209106
 20
0.090506911277771
 30
-1.5087425708770752e-06
 11
0.4464801251888275
 21
0.090507872402668
 31
-1.5422701835632324e-06
 12
-0.21035626530647278
 22
0.0905078873038292
 32
-1.6316771507263184e-06
 13
-0.21035626530647278
 23
0.0905078873038292
 33
-1.6316771507263184e-06
  0
3DFACE
  8
0
 10
1.0862027406692505
 20
0.17050683498382568
 30
-8.121132850646973e-07
 11
0.7663413286209106
 21
0.17050683498382568
 31
-8.456408977508545e-07
 12
0.7663413286209106
 22
0.090506911277771
 32
-1.5087425708770752e-06
 13
0.7663413286209106
 23
0.090506911277771
 33
-1.5087425708770752e-06
  0
3DFACE
  8
0
 10
1.7259252071380615
 20
0.1705068200826645
 30
-7.413327693939209e-07
 11
1.4060639142990112
 21
0.1705068200826645
 31
-7.7858567237854e-07
 12
1.4060639142990112
 22
0.0905068963766098
 32
-1.4416873455047607e-06
 13
1.4060639142990112
 23
0.0905068963766098
 33
-1.4416873455047607e-06
  0
3DFACE
  8
0
 10
1.0862027406692505
 20
0.0905069038271904
 30
-1.475214958190918e-06
 11
1.0862027406692505
 21
0.17050683498382568
 31
-8.121132850646973e-07
 12
0.7663413286209106
 22
0.090506911277771
 32
-1.5087425708770752e-06
 13
0.7663413286209106
 23
0.090506911277771
 33
-1.5087425708770752e-06
  0
3DFACE
  8
0
 10
1.6459251642227173
 20
-0.19572509825229645
 30
-2.905726432800293e-07
 11
1.7259252071380615
 21
0.1705068200826645
 31
-7.413327693939209e-07
 12
1.4060639142990112
 22
0.0905068963766098
 32
-1.4416873455047607e-06
 13
1.4060639142990112
 23
0.0905068963766098
 33
-1.4416873455047607e-06
  0
3DFACE
  8
0
 10
1.4060639142990112
 20
0.0905068963766098
 30
-1.4416873455047607e-06
 11
1.0862027406692505
 21
0.0905069038271904
 31
-1.475214958190918e-06
 12
0.7663413286209106
 22
0.090506911277771
 32
-1.5087425708770752e-06
 13
0.7663413286209106
 23
0.090506911277771
 33
-1.5087425708770752e-06
  0
3DFACE
  8
0
 10
0.7663413286209106
 20
0.090506911277771
 30
-1.5087425708770752e-06
 11
-0.21035626530647278
 21
0.0905078873038292
 31
-1.6316771507263184e-06
 12
1.6459250450134277
 22
-1.2944220304489136
 32
-2.5704503059387207e-07
 13
1.6459250450134277
 23
-1.2944220304489136
 33
-2.5704503059387207e-07
  0
3DFACE
  8
0
 10
1.6459250450134277
 20
-1.2944220304489136
 30
-2.5704503059387207e-07
 11
1.6459251642227173
 21
-0.19572509825229645
 31
-2.905726432800293e-07
 12
1.4060639142990112
 22
0.0905068963766098
 32
-1.4416873455047607e-06
 13
1.4060639142990112
 23
0.0905068963766098
 33
-1.4416873455047607e-06
  0
3DFACE
  8
0
 10
1.6459250450134277
 20
-1.2944220304489136
 30
-2.5704503059387207e-07
 11
1.4060639142990112
 21
0.0905068963766098
 31
-1.4416873455047607e-06
 12
0.7663413286209106
 22
0.090506911277771
 32
-1.5087425708770752e-06
 13
0.7663413286209106
 23
0.090506911277771
 33
-1.5087425708770752e-06
  0
3DFACE
  8
0
 10
-3.3786027431488037
 20
-5.899652481079102
 30
2.963101053410355e-07
 11
-3.3786027431488037
 21
-5.482259273529053
 31
2.963101053410355e-07
 12
-3.298603057861328
 22
-5.482259273529053
 32
2.8140894414718787e-07
 13
-3.298603057861328
 23
-5.482259273529053
 33
2.8140894414718787e-07
  0
3DFACE
  8
0
 10
-3.298603057861328
 20
-5.482259273529053
 30
2.8140894414718787e-07
 11
-3.298603057861328
 21
-5.064866065979004
 31
2.8140894414718787e-07
 12
-2.8019399642944336
 22
-5.064866065979004
 32
2.069031523888043e-07
 13
-2.8019399642944336
 23
-5.064866065979004
 33
2.069031523888043e-07
  0
3DFACE
  8
0
 10
-2.573554515838623
 20
-5.509941101074219
 30
6.539380024150887e-07
 11
-2.5735559463500977
 21
-5.064866065979004
 31
1.77100830001109e-07
 12
0.6499569416046143
 22
-5.064865589141846
 32
-3.146375036067184e-07
 13
0.6499569416046143
 23
-5.064865589141846
 33
-3.146375036067184e-07
  0
3DFACE
  8
0
 10
-3.298603057861328
 20
-5.482259273529053
 30
2.8140894414718787e-07
 11
-2.8019399642944336
 21
-5.064866065979004
 31
2.069031523888043e-07
 12
-2.8019399642944336
 22
-5.509941101074219
 32
6.83740324802784e-07
 13
-2.8019399642944336
 23
-5.509941101074219
 33
6.83740324802784e-07
  0
3DFACE
  8
0
 10
-2.5801796913146973
 20
-5.531782150268555
 30
6.539380024150887e-07
 11
-2.573554515838623
 21
-5.509941101074219
 31
6.539380024150887e-07
 12
0.6499569416046143
 22
-5.064865589141846
 32
-3.146375036067184e-07
 13
0.6499569416046143
 23
-5.064865589141846
 33
-3.146375036067184e-07
  0
3DFACE
  8
0
 10
-3.298603057861328
 20
-5.482259273529053
 30
2.8140894414718787e-07
 11
-2.8019399642944336
 21
-5.509941101074219
 31
6.83740324802784e-07
 12
-2.795311450958252
 22
-5.531782150268555
 32
6.83740324802784e-07
 13
-2.795311450958252
 23
-5.531782150268555
 33
6.83740324802784e-07
  0
3DFACE
  8
0
 10
-2.5909385681152344
 20
-5.551910877227783
 30
6.539380024150887e-07
 11
-2.5801796913146973
 21
-5.531782150268555
 31
6.539380024150887e-07
 12
0.6499569416046143
 22
-5.064865589141846
 32
-3.146375036067184e-07
 13
0.6499569416046143
 23
-5.064865589141846
 33
-3.146375036067184e-07
  0
3DFACE
  8
0
 10
-3.298603057861328
 20
-5.482259273529053
 30
2.8140894414718787e-07
 11
-2.795311450958252
 21
-5.531782150268555
 31
6.83740324802784e-07
 12
-2.784552574157715
 22
-5.551911354064941
 32
6.83740324802784e-07
 13
-2.784552574157715
 23
-5.551911354064941
 33
6.83740324802784e-07
  0
3DFACE
  8
0
 10
-2.6054182052612305
 20
-5.569554328918457
 30
6.539380024150887e-07
 11
-2.5909385681152344
 21
-5.551910877227783
 31
6.539380024150887e-07
 12
0.6499569416046143
 22
-5.064865589141846
 32
-3.146375036067184e-07
 13
0.6499569416046143
 23
-5.064865589141846
 33
-3.146375036067184e-07
  0
3DFACE
  8
0
 10
-3.298603057861328
 20
-5.482259273529053
 30
2.8140894414718787e-07
 11
-2.784552574157715
 21
-5.551911354064941
 31
6.83740324802784e-07
 12
-2.7700729370117188
 22
-5.569554328918457
 32
6.83740324802784e-07
 13
-2.7700729370117188
 23
-5.569554328918457
 33
6.83740324802784e-07
  0
3DFACE
  8
0
 10
-2.6230616569519043
 20
-5.584033489227295
 30
6.613885830120125e-07
 11
-2.6054182052612305
 21
-5.569554328918457
 31
6.539380024150887e-07
 12
0.6499569416046143
 22
-5.064865589141846
 32
-3.146375036067184e-07
 13
0.6499569416046143
 23
-5.064865589141846
 33
-3.146375036067184e-07
  0
3DFACE
  8
0
 10
-3.298603057861328
 20
-5.482259273529053
 30
2.8140894414718787e-07
 11
-2.7700729370117188
 21
-5.569554328918457
 31
6.83740324802784e-07
 12
-2.752429962158203
 22
-5.584033489227295
 32
6.762897442058602e-07
 13
-2.752429962158203
 23
-5.584033489227295
 33
6.762897442058602e-07
  0
3DFACE
  8
0
 10
-2.643190383911133
 20
-5.59479284286499
 30
6.613885830120125e-07
 11
-2.6230616569519043
 21
-5.584033489227295
 31
6.613885830120125e-07
 12
0.6499569416046143
 22
-5.064865589141846
 32
-3.146375036067184e-07
 13
0.6499569416046143
 23
-5.064865589141846
 33
-3.146375036067184e-07
  0
3DFACE
  8
0
 10
-3.298603057861328
 20
-5.482259273529053
 30
2.8140894414718787e-07
 11
-2.752429962158203
 21
-5.584033489227295
 31
6.762897442058602e-07
 12
-2.7323007583618164
 22
-5.59479284286499
 32
6.762897442058602e-07
 13
-2.7323007583618164
 23
-5.59479284286499
 33
6.762897442058602e-07
  0
3DFACE
  8
0
 10
-2.6650314331054688
 20
-5.6014180183410645
 30
6.688391636089364e-07
 11
-2.643190383911133
 21
-5.59479284286499
 31
6.613885830120125e-07
 12
0.6499569416046143
 22
-5.064865589141846
 32
-3.146375036067184e-07
 13
0.6499569416046143
 23
-5.064865589141846
 33
-3.146375036067184e-07
  0
3DFACE
  8
0
 10
-3.298603057861328
 20
-5.482259273529053
 30
2.8140894414718787e-07
 11
-2.7323007583618164
 21
-5.59479284286499
 31
6.762897442058602e-07
 12
-2.7104597091674805
 22
-5.6014180183410645
 32
6.762897442058602e-07
 13
-2.7104597091674805
 23
-5.6014180183410645
 33
6.762897442058602e-07
  0
3DFACE
  8
0
 10
-2.6650314331054688
 20
-5.6014180183410645
 30
6.688391636089364e-07
 11
0.6499569416046143
 21
-5.064865589141846
 31
-3.146375036067184e-07
 12
0.6499569416046143
 22
-5.426476001739502
 32
-3.146375036067184e-07
 13
0.6499569416046143
 23
-5.426476001739502
 33
-3.146375036067184e-07
  0
3DFACE
  8
0
 10
-3.3786027431488037
 20
-5.899652481079102
 30
2.963101053410355e-07
 11
-3.298603057861328
 21
-5.482259273529053
 31
2.8140894414718787e-07
 12
-2.7104597091674805
 22
-5.6014180183410645
 32
6.762897442058602e-07
 13
-2.7104597091674805
 23
-5.6014180183410645
 33
6.762897442058602e-07
  0
3DFACE
  8
0
 10
-2.6877455711364746
 20
-5.6036553382873535
 30
6.688391636089364e-07
 11
-2.6650314331054688
 21
-5.6014180183410645
 31
6.688391636089364e-07
 12
0.6499569416046143
 22
-5.426476001739502
 32
-3.146375036067184e-07
 13
0.6499569416046143
 23
-5.426476001739502
 33
-3.146375036067184e-07
  0
3DFACE
  8
0
 10
-3.3786027431488037
 20
-5.899652481079102
 30
2.963101053410355e-07
 11
-2.7104597091674805
 21
-5.6014180183410645
 31
6.762897442058602e-07
 12
-2.6877455711364746
 22
-5.6036553382873535
 32
6.688391636089364e-07
 13
-2.6877455711364746
 23
-5.6036553382873535
 33
6.688391636089364e-07
  0
3DFACE
  8
0
 10
-3.3786027431488037
 20
-6.667966365814209
 30
2.963101053410355e-07
 11
-3.3786027431488037
 21
-6.25057315826416
 31
2.963101053410355e-07
 12
-3.298603057861328
 22
-6.25057315826416
 32
2.8140894414718787e-07
 13
-3.298603057861328
 23
-6.25057315826416
 33
2.8140894414718787e-07
  0
3DFACE
  8
0
 10
-3.298603057861328
 20
-5.899652481079102
 30
2.8140894414718787e-07
 11
-3.3786027431488037
 21
-5.899652481079102
 31
2.963101053410355e-07
 12
-2.6877455711364746
 22
-5.6036553382873535
 32
6.688391636089364e-07
 13
-2.6877455711364746
 23
-5.6036553382873535
 33
6.688391636089364e-07
  0
3DFACE
  8
0
 10
-3.298602819442749
 20
-6.667966365814209
 30
2.8140894414718787e-07
 11
-3.3786027431488037
 21
-6.667966365814209
 31
2.963101053410355e-07
 12
-3.298603057861328
 22
-6.25057315826416
 32
2.8140894414718787e-07
 13
-3.298603057861328
 23
-6.25057315826416
 33
2.8140894414718787e-07
  0
3DFACE
  8
0
 10
-3.298603057861328
 20
-6.25057315826416
 30
2.8140894414718787e-07
 11
-3.298603057861328
 21
-5.899652481079102
 31
2.8140894414718787e-07
 12
-2.6877455711364746
 22
-5.6036553382873535
 32
6.688391636089364e-07
 13
-2.6877455711364746
 23
-5.6036553382873535
 33
6.688391636089364e-07
  0
3DFACE
  8
0
 10
-2.6877455711364746
 20
-5.6036553382873535
 30
6.688391636089364e-07
 11
0.6499569416046143
 21
-5.426476001739502
 31
-3.146375036067184e-07
 12
0.7299569845199585
 22
-5.426476001739502
 32
-3.220880842036422e-07
 13
0.7299569845199585
 23
-5.426476001739502
 33
-3.220880842036422e-07
  0
3DFACE
  8
0
 10
0.7299569845199585
 20
-5.426476001739502
 30
-3.220880842036422e-07
 11
0.7299570441246033
 21
-5.788075923919678
 31
-3.220880842036422e-07
 12
0.649957001209259
 22
-5.788075923919678
 32
-3.146375036067184e-07
 13
0.649957001209259
 23
-5.788075923919678
 33
-3.146375036067184e-07
  0
3DFACE
  8
0
 10
0.649957001209259
 20
-6.149685859680176
 30
-3.146375036067184e-07
 11
0.7299570441246033
 21
-6.149685859680176
 31
-3.220880842036422e-07
 12
0.729957103729248
 22
-6.511285781860352
 32
-3.220880842036422e-07
 13
0.729957103729248
 23
-6.511285781860352
 33
-3.220880842036422e-07
  0
3DFACE
  8
0
 10
-2.6877455711364746
 20
-5.6036553382873535
 30
6.688391636089364e-07
 11
0.7299569845199585
 21
-5.426476001739502
 31
-3.220880842036422e-07
 12
0.649957001209259
 22
-5.788075923919678
 32
-3.146375036067184e-07
 13
0.649957001209259
 23
-5.788075923919678
 33
-3.146375036067184e-07
  0
3DFACE
  8
0
 10
0.649957001209259
 20
-6.149685859680176
 30
-3.146375036067184e-07
 11
0.729957103729248
 21
-6.511285781860352
 31
-3.220880842036422e-07
 12
0.6499570608139038
 22
-6.511285781860352
 32
-3.146375036067184e-07
 13
0.6499570608139038
 23
-6.511285781860352
 33
-3.146375036067184e-07
  0
3DFACE
  8
0
 10
-2.6877455711364746
 20
-5.6036553382873535
 30
6.688391636089364e-07
 11
0.649957001209259
 21
-5.788075923919678
 31
-3.146375036067184e-07
 12
0.649957001209259
 22
-6.149685859680176
 32
-3.146375036067184e-07
 13
0.649957001209259
 23
-6.149685859680176
 33
-3.146375036067184e-07
  0
3DFACE
  8
0
 10
-3.298602819442749
 20
-6.667966365814209
 30
2.8140894414718787e-07
 11
-3.298603057861328
 21
-6.25057315826416
 31
2.8140894414718787e-07
 12
-2.6877455711364746
 22
-5.6036553382873535
 32
6.688391636089364e-07
 13
-2.6877455711364746
 23
-5.6036553382873535
 33
6.688391636089364e-07
  0
3DFACE
  8
0
 10
-3.3786027431488037
 20
-7.421761512756348
 30
2.963101053410355e-07
 11
-3.3786027431488037
 21
-7.051414966583252
 31
2.963101053410355e-07
 12
-3.298602819442749
 22
-7.051414966583252
 32
2.8140894414718787e-07
 13
-3.298602819442749
 23
-7.051414966583252
 33
2.8140894414718787e-07
  0
3DFACE
  8
0
 10
-3.298602819442749
 20
-7.051414966583252
 30
2.8140894414718787e-07
 11
-3.298602819442749
 21
-6.667966365814209
 31
2.8140894414718787e-07
 12
-2.6877455711364746
 22
-5.6036553382873535
 32
6.688391636089364e-07
 13
-2.6877455711364746
 23
-5.6036553382873535
 33
6.688391636089364e-07
  0
3DFACE
  8
0
 10
-2.6877455711364746
 20
-5.6036553382873535
 30
6.688391636089364e-07
 11
0.649957001209259
 21
-6.149685859680176
 31
-3.146375036067184e-07
 12
0.6499570608139038
 22
-6.511285781860352
 32
-3.146375036067184e-07
 13
0.6499570608139038
 23
-6.511285781860352
 33
-3.146375036067184e-07
  0
3DFACE
  8
0
 10
0.6499570608139038
 20
-6.87289571762085
 30
-3.146375036067184e-07
 11
0.729957103729248
 21
-6.87289571762085
 31
-3.220880842036422e-07
 12
0.7299571633338928
 22
-7.234496116638184
 32
-3.220880842036422e-07
 13
0.7299571633338928
 23
-7.234496116638184
 33
-3.220880842036422e-07
  0
3DFACE
  8
0
 10
-2.6877455711364746
 20
-5.6036553382873535
 30
6.688391636089364e-07
 11
0.6499570608139038
 21
-6.511285781860352
 31
-3.146375036067184e-07
 12
0.6499570608139038
 22
-6.87289571762085
 32
-3.146375036067184e-07
 13
0.6499570608139038
 23
-6.87289571762085
 33
-3.146375036067184e-07
  0
3DFACE
  8
0
 10
-3.3786027431488037
 20
-7.421761512756348
 30
2.963101053410355e-07
 11
-3.298602819442749
 21
-7.051414966583252
 31
2.8140894414718787e-07
 12
-2.6877455711364746
 22
-5.6036553382873535
 32
6.688391636089364e-07
 13
-2.6877455711364746
 23
-5.6036553382873535
 33
6.688391636089364e-07
  0
3DFACE
  8
0
 10
-2.93237042427063
 20
-7.569226264953613
 30
3.484641695195023e-07
 11
-3.298602819442749
 21
-7.569226264953613
 31
4.006182336979691e-07
 12
-3.298602819442749
 22
-7.42175817489624
 32
2.8140894414718787e-07
 13
-3.298602819442749
 23
-7.42175817489624
 33
2.8140894414718787e-07
  0
3DFACE
  8
0
 10
-3.298602819442749
 20
-7.42175817489624
 30
2.8140894414718787e-07
 11
-3.3786027431488037
 21
-7.421761512756348
 31
2.963101053410355e-07
 12
-2.6877455711364746
 22
-5.6036553382873535
 32
6.688391636089364e-07
 13
-2.6877455711364746
 23
-5.6036553382873535
 33
6.688391636089364e-07
  0
3DFACE
  8
0
 10
-2.6877455711364746
 20
-5.6036553382873535
 30
6.688391636089364e-07
 11
0.6499570608139038
 21
-6.87289571762085
 31
-3.146375036067184e-07
 12
0.7299571633338928
 22
-7.234496116638184
 32
-3.220880842036422e-07
 13
0.7299571633338928
 23
-7.234496116638184
 33
-3.220880842036422e-07
  0
3DFACE
  8
0
 10
0.6499571204185486
 20
-7.234496116638184
 30
-3.146375036067184e-07
 11
0.6499571204185486
 21
-7.569225788116455
 31
-3.146375036067184e-07
 12
0.36372441053390503
 22
-7.569225788116455
 32
-2.699340200251754e-07
 13
0.36372441053390503
 23
-7.569225788116455
 33
-2.699340200251754e-07
  0
3DFACE
  8
0
 10
-2.6877455711364746
 20
-5.6036553382873535
 30
6.688391636089364e-07
 11
0.7299571633338928
 21
-7.234496116638184
 31
-3.220880842036422e-07
 12
0.6499571204185486
 22
-7.234496116638184
 32
-3.146375036067184e-07
 13
0.6499571204185486
 23
-7.234496116638184
 33
-3.146375036067184e-07
  0
3DFACE
  8
0
 10
-2.93237042427063
 20
-7.569226264953613
 30
3.484641695195023e-07
 11
-3.298602819442749
 21
-7.42175817489624
 31
2.8140894414718787e-07
 12
-2.6877455711364746
 22
-5.6036553382873535
 32
6.688391636089364e-07
 13
-2.6877455711364746
 23
-5.6036553382873535
 33
6.688391636089364e-07
  0
3DFACE
  8
0
 10
-2.5661375522613525
 20
-7.649226188659668
 30
1.77100830001109e-07
 11
-2.93237042427063
 21
-7.649226188659668
 31
3.484641695195023e-07
 12
-2.93237042427063
 22
-7.569226264953613
 32
3.484641695195023e-07
 13
-2.93237042427063
 23
-7.569226264953613
 33
3.484641695195023e-07
  0
3DFACE
  8
0
 10
-1.833672046661377
 20
-7.649226188659668
 30
1.8455141059803282e-07
 11
-2.1999049186706543
 21
-7.649226188659668
 31
2.3670547477649961e-07
 12
-2.1999049186706543
 22
-7.569226264953613
 32
2.3670547477649961e-07
 13
-2.1999049186706543
 23
-7.569226264953613
 33
2.3670547477649961e-07
  0
3DFACE
  8
0
 10
-2.5661375522613525
 20
-7.569226264953613
 30
1.77100830001109e-07
 11
-2.5661375522613525
 21
-7.649226188659668
 31
1.77100830001109e-07
 12
-2.93237042427063
 22
-7.569226264953613
 32
3.484641695195023e-07
 13
-2.93237042427063
 23
-7.569226264953613
 33
3.484641695195023e-07
  0
3DFACE
  8
0
 10
-1.833672046661377
 20
-7.569226264953613
 30
1.8455141059803282e-07
 11
-1.833672046661377
 21
-7.649226188659668
 31
1.8455141059803282e-07
 12
-2.1999049186706543
 22
-7.569226264953613
 32
2.3670547477649961e-07
 13
-2.1999049186706543
 23
-7.569226264953613
 33
2.3670547477649961e-07
  0
3DFACE
  8
0
 10
-2.1999049186706543
 20
-7.569226264953613
 30
2.3670547477649961e-07
 11
-2.5661375522613525
 21
-7.569226264953613
 31
1.77100830001109e-07
 12
-2.93237042427063
 22
-7.569226264953613
 32
3.484641695195023e-07
 13
-2.93237042427063
 23
-7.569226264953613
 33
3.484641695195023e-07
  0
3DFACE
  8
0
 10
-2.93237042427063
 20
-7.569226264953613
 30
3.484641695195023e-07
 11
-2.6877455711364746
 21
-5.6036553382873535
 31
6.688391636089364e-07
 12
0.6499571204185486
 22
-7.234496116638184
 32
-3.146375036067184e-07
 13
0.6499571204185486
 23
-7.234496116638184
 33
-3.146375036067184e-07
  0
3DFACE
  8
0
 10
0.36372441053390503
 20
-7.569225788116455
 30
-2.699340200251754e-07
 11
0.3637244403362274
 21
-7.64922571182251
 31
-2.699340200251754e-07
 12
-0.002508325967937708
 22
-7.64922571182251
 32
-2.1032936103893007e-07
 13
-0.002508325967937708
 23
-7.64922571182251
 33
-2.1032936103893007e-07
  0
3DFACE
  8
0
 10
-2.1999049186706543
 20
-7.569226264953613
 30
2.3670547477649961e-07
 11
-2.93237042427063
 21
-7.569226264953613
 31
3.484641695195023e-07
 12
0.6499571204185486
 22
-7.234496116638184
 32
-3.146375036067184e-07
 13
0.6499571204185486
 23
-7.234496116638184
 33
-3.146375036067184e-07
  0
3DFACE
  8
0
 10
0.6499571204185486
 20
-7.234496116638184
 30
-3.146375036067184e-07
 11
0.36372441053390503
 21
-7.569225788116455
 31
-2.699340200251754e-07
 12
-0.002508325967937708
 22
-7.64922571182251
 32
-2.1032936103893007e-07
 13
-0.002508325967937708
 23
-7.64922571182251
 33
-2.1032936103893007e-07
  0
3DFACE
  8
0
 10
-0.36874115467071533
 20
-7.569225788116455
 30
-3.896600730968203e-08
 11
-0.36874112486839294
 21
-7.64922571182251
 31
-3.896600730968203e-08
 12
-0.7349739074707031
 22
-7.64922571182251
 32
-1.0602123268199648e-07
 13
-0.7349739074707031
 23
-7.64922571182251
 33
-1.0602123268199648e-07
  0
3DFACE
  8
0
 10
0.6499571204185486
 20
-7.234496116638184
 30
-3.146375036067184e-07
 11
-0.002508325967937708
 21
-7.64922571182251
 31
-2.1032936103893007e-07
 12
-0.002508332021534443
 22
-7.569225788116455
 32
-2.1032936103893007e-07
 13
-0.002508332021534443
 23
-7.569225788116455
 33
-2.1032936103893007e-07
  0
3DFACE
  8
0
 10
-0.36874115467071533
 20
-7.569225788116455
 30
-3.896600730968203e-08
 11
-0.7349739074707031
 21
-7.64922571182251
 31
-1.0602123268199648e-07
 12
-0.7349739074707031
 22
-7.569225788116455
 32
-1.0602123268199648e-07
 13
-0.7349739074707031
 23
-7.569225788116455
 33
-1.0602123268199648e-07
  0
3DFACE
  8
0
 10
0.6499571204185486
 20
-7.234496116638184
 30
-3.146375036067184e-07
 11
-0.002508332021534443
 21
-7.569225788116455
 31
-2.1032936103893007e-07
 12
-0.36874115467071533
 22
-7.569225788116455
 32
-3.896600730968203e-08
 13
-0.36874115467071533
 23
-7.569225788116455
 33
-3.896600730968203e-08
  0
3DFACE
  8
0
 10
-1.833672046661377
 20
-7.569226264953613
 30
1.8455141059803282e-07
 11
-2.1999049186706543
 21
-7.569226264953613
 31
2.3670547477649961e-07
 12
0.6499571204185486
 22
-7.234496116638184
 32
-3.146375036067184e-07
 13
0.6499571204185486
 23
-7.234496116638184
 33
-3.146375036067184e-07
  0
3DFACE
  8
0
 10
-1.101206660270691
 20
-7.569225788116455
 30
-4.6416587906605855e-08
 11
-1.4674394130706787
 21
-7.569226264953613
 31
1.249467658226422e-07
 12
-1.833672046661377
 22
-7.569226264953613
 32
1.8455141059803282e-07
 13
-1.833672046661377
 23
-7.569226264953613
 33
1.8455141059803282e-07
  0
3DFACE
  8
0
 10
-0.36874115467071533
 20
-7.569225788116455
 30
-3.896600730968203e-08
 11
-0.7349739074707031
 21
-7.569225788116455
 31
-1.0602123268199648e-07
 12
-1.101206660270691
 22
-7.569225788116455
 32
-4.6416587906605855e-08
 13
-1.101206660270691
 23
-7.569225788116455
 33
-4.6416587906605855e-08
  0
3DFACE
  8
0
 10
-1.833672046661377
 20
-7.569226264953613
 30
1.8455141059803282e-07
 11
0.6499571204185486
 21
-7.234496116638184
 31
-3.146375036067184e-07
 12
-0.36874115467071533
 22
-7.569225788116455
 32
-3.896600730968203e-08
 13
-0.36874115467071533
 23
-7.569225788116455
 33
-3.896600730968203e-08
  0
3DFACE
  8
0
 10
-0.36874115467071533
 20
-7.569225788116455
 30
-3.896600730968203e-08
 11
-1.101206660270691
 21
-7.569225788116455
 31
-4.6416587906605855e-08
 12
-1.833672046661377
 22
-7.569226264953613
 32
1.8455141059803282e-07
 13
-1.833672046661377
 23
-7.569226264953613
 33
1.8455141059803282e-07
  0
3DFACE
  8
0
 10
-3.298603057861328
 20
-4.647472858428955
 30
2.8140894414718787e-07
 11
-3.378602981567383
 21
-4.647472858428955
 31
2.963101053410355e-07
 12
-3.378602981567383
 22
-4.230079650878906
 32
2.963101053410355e-07
 13
-3.378602981567383
 23
-4.230079650878906
 33
2.963101053410355e-07
  0
3DFACE
  8
0
 10
-3.298603057861328
 20
-3.8791592121124268
 30
2.8140894414718787e-07
 11
-3.378602981567383
 21
-3.8791592121124268
 31
2.963101053410355e-07
 12
-3.378602981567383
 22
-3.461765766143799
 32
2.963101053410355e-07
 13
-3.378602981567383
 23
-3.461765766143799
 33
2.963101053410355e-07
  0
3DFACE
  8
0
 10
-3.298603057861328
 20
-4.647472858428955
 30
2.8140894414718787e-07
 11
-3.378602981567383
 21
-4.230079650878906
 31
2.963101053410355e-07
 12
-3.298603057861328
 22
-4.230079650878906
 32
2.8140894414718787e-07
 13
-3.298603057861328
 23
-4.230079650878906
 33
2.8140894414718787e-07
  0
3DFACE
  8
0
 10
-3.298603057861328
 20
-3.8791592121124268
 30
2.8140894414718787e-07
 11
-3.378602981567383
 21
-3.461765766143799
 31
2.963101053410355e-07
 12
-3.2986032962799072
 22
-3.461765766143799
 32
2.8140894414718787e-07
 13
-3.2986032962799072
 23
-3.461765766143799
 33
2.8140894414718787e-07
  0
3DFACE
  8
0
 10
-3.298603057861328
 20
-4.647472858428955
 30
2.8140894414718787e-07
 11
-3.298603057861328
 21
-4.230079650878906
 31
2.8140894414718787e-07
 12
-3.298603057861328
 22
-3.8791592121124268
 32
2.8140894414718787e-07
 13
-3.298603057861328
 23
-3.8791592121124268
 33
2.8140894414718787e-07
  0
3DFACE
  8
0
 10
-2.8019399642944336
 20
-5.064866065979004
 30
2.069031523888043e-07
 11
-3.298603057861328
 21
-5.064866065979004
 31
2.8140894414718787e-07
 12
-3.298603057861328
 22
-4.647472858428955
 32
2.8140894414718787e-07
 13
-3.298603057861328
 23
-4.647472858428955
 33
2.8140894414718787e-07
  0
3DFACE
  8
0
 10
0.6499569416046143
 20
-5.064865589141846
 30
-3.146375036067184e-07
 11
-2.5735559463500977
 21
-5.064866065979004
 31
1.77100830001109e-07
 12
-2.573554515838623
 22
-4.619791507720947
 32
6.539380024150887e-07
 13
-2.573554515838623
 23
-4.619791507720947
 33
6.539380024150887e-07
  0
3DFACE
  8
0
 10
-2.8019399642944336
 20
-4.619791030883789
 30
6.83740324802784e-07
 11
-2.8019399642944336
 21
-5.064866065979004
 31
2.069031523888043e-07
 12
-3.298603057861328
 22
-4.647472858428955
 32
2.8140894414718787e-07
 13
-3.298603057861328
 23
-4.647472858428955
 33
2.8140894414718787e-07
  0
3DFACE
  8
0
 10
0.6499569416046143
 20
-5.064865589141846
 30
-3.146375036067184e-07
 11
-2.573554515838623
 21
-4.619791507720947
 31
6.539380024150887e-07
 12
-2.5801796913146973
 22
-4.597949981689453
 32
6.539380024150887e-07
 13
-2.5801796913146973
 23
-4.597949981689453
 33
6.539380024150887e-07
  0
3DFACE
  8
0
 10
-2.795311450958252
 20
-4.597949981689453
 30
6.83740324802784e-07
 11
-2.8019399642944336
 21
-4.619791030883789
 31
6.83740324802784e-07
 12
-3.298603057861328
 22
-4.647472858428955
 32
2.8140894414718787e-07
 13
-3.298603057861328
 23
-4.647472858428955
 33
2.8140894414718787e-07
  0
3DFACE
  8
0
 10
0.6499569416046143
 20
-5.064865589141846
 30
-3.146375036067184e-07
 11
-2.5801796913146973
 21
-4.597949981689453
 31
6.539380024150887e-07
 12
-2.5909385681152344
 22
-4.577821254730225
 32
6.539380024150887e-07
 13
-2.5909385681152344
 23
-4.577821254730225
 33
6.539380024150887e-07
  0
3DFACE
  8
0
 10
-2.784552574157715
 20
-4.577820777893066
 30
6.83740324802784e-07
 11
-2.795311450958252
 21
-4.597949981689453
 31
6.83740324802784e-07
 12
-3.298603057861328
 22
-4.647472858428955
 32
2.8140894414718787e-07
 13
-3.298603057861328
 23
-4.647472858428955
 33
2.8140894414718787e-07
  0
3DFACE
  8
0
 10
0.6499569416046143
 20
-5.064865589141846
 30
-3.146375036067184e-07
 11
-2.5909385681152344
 21
-4.577821254730225
 31
6.539380024150887e-07
 12
-2.6054182052612305
 22
-4.560177803039551
 32
6.539380024150887e-07
 13
-2.6054182052612305
 23
-4.560177803039551
 33
6.539380024150887e-07
  0
3DFACE
  8
0
 10
-2.7700729370117188
 20
-4.560177803039551
 30
6.83740324802784e-07
 11
-2.784552574157715
 21
-4.577820777893066
 31
6.83740324802784e-07
 12
-3.298603057861328
 22
-4.647472858428955
 32
2.8140894414718787e-07
 13
-3.298603057861328
 23
-4.647472858428955
 33
2.8140894414718787e-07
  0
3DFACE
  8
0
 10
0.6499569416046143
 20
-5.064865589141846
 30
-3.146375036067184e-07
 11
-2.6054182052612305
 21
-4.560177803039551
 31
6.539380024150887e-07
 12
-2.6230616569519043
 22
-4.545698642730713
 32
6.613885830120125e-07
 13
-2.6230616569519043
 23
-4.545698642730713
 33
6.613885830120125e-07
  0
3DFACE
  8
0
 10
-2.752429962158203
 20
-4.545698642730713
 30
6.762897442058602e-07
 11
-2.7700729370117188
 21
-4.560177803039551
 31
6.83740324802784e-07
 12
-3.298603057861328
 22
-4.647472858428955
 32
2.8140894414718787e-07
 13
-3.298603057861328
 23
-4.647472858428955
 33
2.8140894414718787e-07
  0
3DFACE
  8
0
 10
0.6499569416046143
 20
-5.064865589141846
 30
-3.146375036067184e-07
 11
-2.6230616569519043
 21
-4.545698642730713
 31
6.613885830120125e-07
 12
-2.643190383911133
 22
-4.534939289093018
 32
6.613885830120125e-07
 13
-2.643190383911133
 23
-4.534939289093018
 33
6.613885830120125e-07
  0
3DFACE
  8
0
 10
-2.7323007583618164
 20
-4.534939289093018
 30
6.762897442058602e-07
 11
-2.752429962158203
 21
-4.545698642730713
 31
6.762897442058602e-07
 12
-3.298603057861328
 22
-4.647472858428955
 32
2.8140894414718787e-07
 13
-3.298603057861328
 23
-4.647472858428955
 33
2.8140894414718787e-07
  0
3DFACE
  8
0
 10
0.6499569416046143
 20
-5.064865589141846
 30
-3.146375036067184e-07
 11
-2.643190383911133
 21
-4.534939289093018
 31
6.613885830120125e-07
 12
-2.6650314331054688
 22
-4.528314113616943
 32
6.688391636089364e-07
 13
-2.6650314331054688
 23
-4.528314113616943
 33
6.688391636089364e-07
  0
3DFACE
  8
0
 10
-2.7104597091674805
 20
-4.528314113616943
 30
6.762897442058602e-07
 11
-2.7323007583618164
 21
-4.534939289093018
 31
6.762897442058602e-07
 12
-3.298603057861328
 22
-4.647472858428955
 32
2.8140894414718787e-07
 13
-3.298603057861328
 23
-4.647472858428955
 33
2.8140894414718787e-07
  0
3DFACE
  8
0
 10
0.6499569416046143
 20
-4.703255653381348
 30
-3.146375036067184e-07
 11
0.6499569416046143
 21
-5.064865589141846
 31
-3.146375036067184e-07
 12
-2.6650314331054688
 22
-4.528314113616943
 32
6.688391636089364e-07
 13
-2.6650314331054688
 23
-4.528314113616943
 33
6.688391636089364e-07
  0
3DFACE
  8
0
 10
-2.7104597091674805
 20
-4.528314113616943
 30
6.762897442058602e-07
 11
-3.298603057861328
 21
-4.647472858428955
 31
2.8140894414718787e-07
 12
-3.298603057861328
 22
-3.8791592121124268
 32
2.8140894414718787e-07
 13
-3.298603057861328
 23
-3.8791592121124268
 33
2.8140894414718787e-07
  0
3DFACE
  8
0
 10
0.6499569416046143
 20
-4.703255653381348
 30
-3.146375036067184e-07
 11
-2.6650314331054688
 21
-4.528314113616943
 31
6.688391636089364e-07
 12
-2.6877455711364746
 22
-4.526076793670654
 32
6.688391636089364e-07
 13
-2.6877455711364746
 23
-4.526076793670654
 33
6.688391636089364e-07
  0
3DFACE
  8
0
 10
-2.6877455711364746
 20
-4.526076793670654
 30
6.688391636089364e-07
 11
-2.7104597091674805
 21
-4.528314113616943
 31
6.762897442058602e-07
 12
-3.298603057861328
 22
-3.8791592121124268
 32
2.8140894414718787e-07
 13
-3.298603057861328
 23
-3.8791592121124268
 33
2.8140894414718787e-07
  0
3DFACE
  8
0
 10
-3.298603057861328
 20
-3.8791592121124268
 30
2.8140894414718787e-07
 11
-3.2986032962799072
 21
-3.461765766143799
 31
2.8140894414718787e-07
 12
-3.2986032962799072
 22
-3.078317165374756
 32
2.8140894414718787e-07
 13
-3.2986032962799072
 23
-3.078317165374756
 33
2.8140894414718787e-07
  0
3DFACE
  8
0
 10
-3.2986032962799072
 20
-3.078317165374756
 30
2.8140894414718787e-07
 11
-3.378602981567383
 21
-3.078317165374756
 31
2.963101053410355e-07
 12
-3.378602981567383
 22
-2.7079708576202393
 32
2.963101053410355e-07
 13
-3.378602981567383
 23
-2.7079708576202393
 33
2.963101053410355e-07
  0
3DFACE
  8
0
 10
-3.2986032962799072
 20
-2.7079741954803467
 30
2.8140894414718787e-07
 11
-3.2986032962799072
 21
-2.5605063438415527
 31
4.006182336979691e-07
 12
-2.932370901107788
 22
-2.5605063438415527
 32
3.484641695195023e-07
 13
-2.932370901107788
 23
-2.5605063438415527
 33
3.484641695195023e-07
  0
3DFACE
  8
0
 10
-3.2986032962799072
 20
-3.078317165374756
 30
2.8140894414718787e-07
 11
-3.378602981567383
 21
-2.7079708576202393
 31
2.963101053410355e-07
 12
-3.2986032962799072
 22
-2.7079741954803467
 32
2.8140894414718787e-07
 13
-3.2986032962799072
 23
-2.7079741954803467
 33
2.8140894414718787e-07
  0
3DFACE
  8
0
 10
-2.6877455711364746
 20
-4.526076793670654
 30
6.688391636089364e-07
 11
-3.298603057861328
 21
-3.8791592121124268
 31
2.8140894414718787e-07
 12
-3.2986032962799072
 22
-3.078317165374756
 32
2.8140894414718787e-07
 13
-3.2986032962799072
 23
-3.078317165374756
 33
2.8140894414718787e-07
  0
3DFACE
  8
0
 10
0.7299569845199585
 20
-4.703255653381348
 30
-3.220880842036422e-07
 11
0.6499569416046143
 21
-4.703255653381348
 31
-3.146375036067184e-07
 12
-2.6877455711364746
 22
-4.526076793670654
 32
6.688391636089364e-07
 13
-2.6877455711364746
 23
-4.526076793670654
 33
6.688391636089364e-07
  0
3DFACE
  8
0
 10
0.6499568819999695
 20
-4.341655731201172
 30
-3.146375036067184e-07
 11
0.7299569249153137
 21
-4.341655731201172
 31
-3.220880842036422e-07
 12
0.7299569845199585
 22
-4.703255653381348
 32
-3.220880842036422e-07
 13
0.7299569845199585
 23
-4.703255653381348
 33
-3.220880842036422e-07
  0
3DFACE
  8
0
 10
0.729956865310669
 20
-3.618445873260498
 30
-3.220880842036422e-07
 11
0.7299569249153137
 21
-3.980045795440674
 31
-3.220880842036422e-07
 12
0.6499568819999695
 22
-3.980045795440674
 32
-3.146375036067184e-07
 13
0.6499568819999695
 23
-3.980045795440674
 33
-3.146375036067184e-07
  0
3DFACE
  8
0
 10
0.6499568819999695
 20
-4.341655731201172
 30
-3.146375036067184e-07
 11
0.7299569845199585
 21
-4.703255653381348
 31
-3.220880842036422e-07
 12
-2.6877455711364746
 22
-4.526076793670654
 32
6.688391636089364e-07
 13
-2.6877455711364746
 23
-4.526076793670654
 33
6.688391636089364e-07
  0
3DFACE
  8
0
 10
0.6499568223953247
 20
-3.618445873260498
 30
-3.146375036067184e-07
 11
0.729956865310669
 21
-3.618445873260498
 31
-3.220880842036422e-07
 12
0.6499568819999695
 22
-3.980045795440674
 32
-3.146375036067184e-07
 13
0.6499568819999695
 23
-3.980045795440674
 33
-3.146375036067184e-07
  0
3DFACE
  8
0
 10
0.6499568819999695
 20
-3.980045795440674
 30
-3.146375036067184e-07
 11
0.6499568819999695
 21
-4.341655731201172
 31
-3.146375036067184e-07
 12
-2.6877455711364746
 22
-4.526076793670654
 32
6.688391636089364e-07
 13
-2.6877455711364746
 23
-4.526076793670654
 33
6.688391636089364e-07
  0
3DFACE
  8
0
 10
-2.6877455711364746
 20
-4.526076793670654
 30
6.688391636089364e-07
 11
-3.2986032962799072
 21
-3.078317165374756
 31
2.8140894414718787e-07
 12
-3.2986032962799072
 22
-2.7079741954803467
 32
2.8140894414718787e-07
 13
-3.2986032962799072
 23
-2.7079741954803467
 33
2.8140894414718787e-07
  0
3DFACE
  8
0
 10
-2.932370901107788
 20
-2.5605063438415527
 30
3.484641695195023e-07
 11
-2.932370901107788
 21
-2.480506420135498
 31
3.484641695195023e-07
 12
-2.5661380290985107
 22
-2.480506181716919
 32
1.77100830001109e-07
 13
-2.5661380290985107
 23
-2.480506181716919
 33
1.77100830001109e-07
  0
3DFACE
  8
0
 10
-2.6877455711364746
 20
-4.526076793670654
 30
6.688391636089364e-07
 11
-3.2986032962799072
 21
-2.7079741954803467
 31
2.8140894414718787e-07
 12
-2.932370901107788
 22
-2.5605063438415527
 32
3.484641695195023e-07
 13
-2.932370901107788
 23
-2.5605063438415527
 33
3.484641695195023e-07
  0
3DFACE
  8
0
 10
0.6499568223953247
 20
-3.618445873260498
 30
-3.146375036067184e-07
 11
0.6499568819999695
 21
-3.980045795440674
 31
-3.146375036067184e-07
 12
-2.6877455711364746
 22
-4.526076793670654
 32
6.688391636089364e-07
 13
-2.6877455711364746
 23
-4.526076793670654
 33
6.688391636089364e-07
  0
3DFACE
  8
0
 10
0.7299568057060242
 20
-2.895235776901245
 30
-3.220880842036422e-07
 11
0.729956865310669
 21
-3.256835699081421
 31
-3.220880842036422e-07
 12
0.6499568223953247
 22
-3.256835699081421
 32
-3.146375036067184e-07
 13
0.6499568223953247
 23
-3.256835699081421
 33
-3.146375036067184e-07
  0
3DFACE
  8
0
 10
0.6499568223953247
 20
-3.256835699081421
 30
-3.146375036067184e-07
 11
0.6499568223953247
 21
-3.618445873260498
 31
-3.146375036067184e-07
 12
-2.6877455711364746
 22
-4.526076793670654
 32
6.688391636089364e-07
 13
-2.6877455711364746
 23
-4.526076793670654
 33
6.688391636089364e-07
  0
3DFACE
  8
0
 10
-2.6877455711364746
 20
-4.526076793670654
 30
6.688391636089364e-07
 11
-2.932370901107788
 21
-2.5605063438415527
 31
3.484641695195023e-07
 12
-2.5661380290985107
 22
-2.480506181716919
 32
1.77100830001109e-07
 13
-2.5661380290985107
 23
-2.480506181716919
 33
1.77100830001109e-07
  0
3DFACE
  8
0
 10
-2.1999051570892334
 20
-2.5605061054229736
 30
2.3670547477649961e-07
 11
-2.1999051570892334
 21
-2.480506181716919
 31
2.3670547477649961e-07
 12
-1.8336725234985352
 22
-2.480506181716919
 32
1.8455141059803282e-07
 13
-1.8336725234985352
 23
-2.480506181716919
 33
1.8455141059803282e-07
  0
3DFACE
  8
0
 10
-2.6877455711364746
 20
-4.526076793670654
 30
6.688391636089364e-07
 11
-2.5661380290985107
 21
-2.480506181716919
 31
1.77100830001109e-07
 12
-2.5661380290985107
 22
-2.5605061054229736
 32
1.77100830001109e-07
 13
-2.5661380290985107
 23
-2.5605061054229736
 33
1.77100830001109e-07
  0
3DFACE
  8
0
 10
-2.1999051570892334
 20
-2.5605061054229736
 30
2.3670547477649961e-07
 11
-1.8336725234985352
 21
-2.480506181716919
 31
1.8455141059803282e-07
 12
-1.8336725234985352
 22
-2.5605061054229736
 32
1.8455141059803282e-07
 13
-1.8336725234985352
 23
-2.5605061054229736
 33
1.8455141059803282e-07
  0
3DFACE
  8
0
 10
-2.6877455711364746
 20
-4.526076793670654
 30
6.688391636089364e-07
 11
-2.5661380290985107
 21
-2.5605061054229736
 31
1.77100830001109e-07
 12
-2.1999051570892334
 22
-2.5605061054229736
 32
2.3670547477649961e-07
 13
-2.1999051570892334
 23
-2.5605061054229736
 33
2.3670547477649961e-07
  0
3DFACE
  8
0
 10
0.7299568057060242
 20
-2.895235776901245
 30
-3.220880842036422e-07
 11
0.6499568223953247
 21
-3.256835699081421
 31
-3.146375036067184e-07
 12
-2.6877455711364746
 22
-4.526076793670654
 32
6.688391636089364e-07
 13
-2.6877455711364746
 23
-4.526076793670654
 33
6.688391636089364e-07
  0
3DFACE
  8
0
 10
0.3637240529060364
 20
-2.5605058670043945
 30
-2.699340200251754e-07
 11
0.6499567627906799
 21
-2.5605058670043945
 31
-3.146375036067184e-07
 12
0.6499567627906799
 22
-2.895235776901245
 32
-3.146375036067184e-07
 13
0.6499567627906799
 23
-2.895235776901245
 33
-3.146375036067184e-07
  0
3DFACE
  8
0
 10
0.6499567627906799
 20
-2.895235776901245
 30
-3.146375036067184e-07
 11
0.7299568057060242
 21
-2.895235776901245
 31
-3.220880842036422e-07
 12
-2.6877455711364746
 22
-4.526076793670654
 32
6.688391636089364e-07
 13
-2.6877455711364746
 23
-4.526076793670654
 33
6.688391636089364e-07
  0
3DFACE
  8
0
 10
-2.6877455711364746
 20
-4.526076793670654
 30
6.688391636089364e-07
 11
-2.1999051570892334
 21
-2.5605061054229736
 31
2.3670547477649961e-07
 12
-1.8336725234985352
 22
-2.5605061054229736
 32
1.8455141059803282e-07
 13
-1.8336725234985352
 23
-2.5605061054229736
 33
1.8455141059803282e-07
  0
3DFACE
  8
0
 10
-1.8336725234985352
 20
-2.5605061054229736
 30
1.8455141059803282e-07
 11
-1.4674397706985474
 21
-2.5605061054229736
 31
1.249467658226422e-07
 12
-1.1012070178985596
 22
-2.5605061054229736
 32
-4.6416587906605855e-08
 13
-1.1012070178985596
 23
-2.5605061054229736
 33
-4.6416587906605855e-08
  0
3DFACE
  8
0
 10
-0.7349742650985718
 20
-2.5605061054229736
 30
-1.0602123268199648e-07
 11
-0.7349742650985718
 21
-2.480506181716919
 31
-1.0602123268199648e-07
 12
-0.36874154210090637
 22
-2.480506181716919
 32
-3.896600730968203e-08
 13
-0.36874154210090637
 23
-2.480506181716919
 33
-3.896600730968203e-08
  0
3DFACE
  8
0
 10
-1.8336725234985352
 20
-2.5605061054229736
 30
1.8455141059803282e-07
 11
-1.1012070178985596
 21
-2.5605061054229736
 31
-4.6416587906605855e-08
 12
-0.7349742650985718
 22
-2.5605061054229736
 32
-1.0602123268199648e-07
 13
-0.7349742650985718
 23
-2.5605061054229736
 33
-1.0602123268199648e-07
  0
3DFACE
  8
0
 10
0.6499567627906799
 20
-2.895235776901245
 30
-3.146375036067184e-07
 11
-2.6877455711364746
 21
-4.526076793670654
 31
6.688391636089364e-07
 12
-1.8336725234985352
 22
-2.5605061054229736
 32
1.8455141059803282e-07
 13
-1.8336725234985352
 23
-2.5605061054229736
 33
1.8455141059803282e-07
  0
3DFACE
  8
0
 10
-0.002508716192096472
 20
-2.480506181716919
 30
-2.1032936103893007e-07
 11
0.363724023103714
 21
-2.48050594329834
 31
-2.699340200251754e-07
 12
0.3637240529060364
 22
-2.5605058670043945
 32
-2.699340200251754e-07
 13
0.3637240529060364
 23
-2.5605058670043945
 33
-2.699340200251754e-07
  0
3DFACE
  8
0
 10
0.6499567627906799
 20
-2.895235776901245
 30
-3.146375036067184e-07
 11
-1.8336725234985352
 21
-2.5605061054229736
 31
1.8455141059803282e-07
 12
-0.7349742650985718
 22
-2.5605061054229736
 32
-1.0602123268199648e-07
 13
-0.7349742650985718
 23
-2.5605061054229736
 33
-1.0602123268199648e-07
  0
3DFACE
  8
0
 10
-0.002508716192096472
 20
-2.480506181716919
 30
-2.1032936103893007e-07
 11
0.3637240529060364
 21
-2.5605058670043945
 31
-2.699340200251754e-07
 12
0.6499567627906799
 22
-2.895235776901245
 32
-3.146375036067184e-07
 13
0.6499567627906799
 23
-2.895235776901245
 33
-3.146375036067184e-07
  0
3DFACE
  8
0
 10
-0.7349742650985718
 20
-2.5605061054229736
 30
-1.0602123268199648e-07
 11
-0.36874154210090637
 21
-2.480506181716919
 31
-3.896600730968203e-08
 12
-0.368741512298584
 22
-2.5605061054229736
 32
-3.896600730968203e-08
 13
-0.368741512298584
 23
-2.5605061054229736
 33
-3.896600730968203e-08
  0
3DFACE
  8
0
 10
-0.002508710138499737
 20
-2.5605061054229736
 30
-2.1032936103893007e-07
 11
-0.002508716192096472
 21
-2.480506181716919
 31
-2.1032936103893007e-07
 12
0.6499567627906799
 22
-2.895235776901245
 32
-3.146375036067184e-07
 13
0.6499567627906799
 23
-2.895235776901245
 33
-3.146375036067184e-07
  0
3DFACE
  8
0
 10
0.6499567627906799
 20
-2.895235776901245
 30
-3.146375036067184e-07
 11
-0.7349742650985718
 21
-2.5605061054229736
 31
-1.0602123268199648e-07
 12
-0.368741512298584
 22
-2.5605061054229736
 32
-3.896600730968203e-08
 13
-0.368741512298584
 23
-2.5605061054229736
 33
-3.896600730968203e-08
  0
3DFACE
  8
0
 10
-0.368741512298584
 20
-2.5605061054229736
 30
-3.896600730968203e-08
 11
-0.002508710138499737
 21
-2.5605061054229736
 31
-2.1032936103893007e-07
 12
0.6499567627906799
 22
-2.895235776901245
 32
-3.146375036067184e-07
 13
0.6499567627906799
 23
-2.895235776901245
 33
-3.146375036067184e-07
  0
3DFACE
  8
0
 10
-2.5070712566375732
 20
-1.883981704711914
 30
2.0116567611694336e-07
 11
-2.5070712566375732
 21
-2.2187116146087646
 31
2.0116567611694336e-07
 12
-2.5070712566375732
 22
-2.2187116146087646
 32
2.086162567138672e-07
 13
-2.5070712566375732
 23
-2.2187116146087646
 33
2.086162567138672e-07
  0
3DFACE
  8
0
 10
-2.5070712566375732
 20
-1.1607716083526611
 30
2.0116567611694336e-07
 11
-2.5070712566375732
 21
-1.5223816633224487
 31
2.0116567611694336e-07
 12
-2.587071180343628
 22
-1.5223816633224487
 32
2.086162567138672e-07
 13
-2.587071180343628
 23
-1.5223816633224487
 33
2.086162567138672e-07
  0
3DFACE
  8
0
 10
-2.587071180343628
 20
-1.883981704711914
 30
2.086162567138672e-07
 11
-2.5070712566375732
 21
-1.883981704711914
 31
2.0116567611694336e-07
 12
-2.5070712566375732
 22
-2.2187116146087646
 32
2.086162567138672e-07
 13
-2.5070712566375732
 23
-2.2187116146087646
 33
2.086162567138672e-07
  0
3DFACE
  8
0
 10
-2.587071180343628
 20
-1.1607716083526611
 30
2.086162567138672e-07
 11
-2.5070712566375732
 21
-1.1607716083526611
 31
2.0116567611694336e-07
 12
-2.587071180343628
 22
-1.5223816633224487
 32
2.086162567138672e-07
 13
-2.587071180343628
 23
-1.5223816633224487
 33
2.086162567138672e-07
  0
3DFACE
  8
0
 10
-2.587071180343628
 20
-1.883981704711914
 30
2.086162567138672e-07
 11
-2.5070712566375732
 21
-2.2187116146087646
 31
2.086162567138672e-07
 12
-2.663015365600586
 22
-2.2187116146087646
 32
2.384185791015625e-07
 13
-2.663015365600586
 23
-2.2187116146087646
 33
2.384185791015625e-07
  0
3DFACE
  8
0
 10
-2.587071180343628
 20
-1.1607716083526611
 30
2.086162567138672e-07
 11
-2.587071180343628
 21
-1.5223816633224487
 31
2.086162567138672e-07
 12
-2.587071180343628
 22
-1.883981704711914
 32
2.086162567138672e-07
 13
-2.587071180343628
 23
-1.883981704711914
 33
2.086162567138672e-07
  0
3DFACE
  8
0
 10
-2.5070714950561523
 20
-0.43756160140037537
 30
2.0116567611694336e-07
 11
-2.5070712566375732
 21
-0.7991716265678406
 31
2.0116567611694336e-07
 12
-2.587071180343628
 22
-0.7991716861724854
 32
2.086162567138672e-07
 13
-2.587071180343628
 23
-0.7991716861724854
 33
2.086162567138672e-07
  0
3DFACE
  8
0
 10
-2.587071180343628
 20
-0.7991716861724854
 30
2.086162567138672e-07
 11
-2.587071180343628
 21
-1.1607716083526611
 31
2.086162567138672e-07
 12
-2.587071180343628
 22
-1.883981704711914
 32
2.086162567138672e-07
 13
-2.587071180343628
 23
-1.883981704711914
 33
2.086162567138672e-07
  0
3DFACE
  8
0
 10
-2.587071180343628
 20
-1.883981704711914
 30
2.086162567138672e-07
 11
-2.663015365600586
 21
-2.2187116146087646
 31
2.384185791015625e-07
 12
-2.8189592361450195
 22
-2.2187116146087646
 32
2.682209014892578e-07
 13
-2.8189592361450195
 23
-2.2187116146087646
 33
2.682209014892578e-07
  0
3DFACE
  8
0
 10
-2.8189592361450195
 20
-2.2187116146087646
 30
2.682209014892578e-07
 11
-2.974903106689453
 21
-2.2187116146087646
 31
2.980232238769531e-07
 12
-3.130847215652466
 22
-2.2187116146087646
 32
3.203749656677246e-07
 13
-3.130847215652466
 23
-2.2187116146087646
 33
3.203749656677246e-07
  0
3DFACE
  8
0
 10
-3.130847215652466
 20
-2.2187116146087646
 30
3.203749656677246e-07
 11
-3.2867910861968994
 21
-2.2187116146087646
 31
3.5762786865234375e-07
 12
-3.2867913246154785
 22
0.28564831614494324
 32
3.5762786865234375e-07
 13
-3.2867913246154785
 23
0.28564831614494324
 33
3.5762786865234375e-07
  0
3DFACE
  8
0
 10
-3.2867913246154785
 20
0.28564831614494324
 30
3.5762786865234375e-07
 11
-2.5070714950561523
 21
0.285648375749588
 31
2.0116567611694336e-07
 12
-2.5070714950561523
 22
-0.07596161961555481
 32
2.0116567611694336e-07
 13
-2.5070714950561523
 23
-0.07596161961555481
 33
2.0116567611694336e-07
  0
3DFACE
  8
0
 10
-2.587071418762207
 20
-0.43756160140037537
 30
2.086162567138672e-07
 11
-2.5070714950561523
 21
-0.43756160140037537
 31
2.0116567611694336e-07
 12
-2.587071180343628
 22
-0.7991716861724854
 32
2.086162567138672e-07
 13
-2.587071180343628
 23
-0.7991716861724854
 33
2.086162567138672e-07
  0
3DFACE
  8
0
 10
-3.2867913246154785
 20
0.28564831614494324
 30
3.5762786865234375e-07
 11
-2.5070714950561523
 21
-0.07596161961555481
 31
2.0116567611694336e-07
 12
-2.587071418762207
 22
-0.0759616270661354
 32
2.086162567138672e-07
 13
-2.587071418762207
 23
-0.0759616270661354
 33
2.086162567138672e-07
  0
3DFACE
  8
0
 10
-2.587071418762207
 20
-0.0759616270661354
 30
2.086162567138672e-07
 11
-2.587071418762207
 21
-0.43756160140037537
 31
2.086162567138672e-07
 12
-2.587071180343628
 22
-0.7991716861724854
 32
2.086162567138672e-07
 13
-2.587071180343628
 23
-0.7991716861724854
 33
2.086162567138672e-07
  0
3DFACE
  8
0
 10
-2.587071180343628
 20
-0.7991716861724854
 30
2.086162567138672e-07
 11
-2.587071180343628
 21
-1.883981704711914
 31
2.086162567138672e-07
 12
-2.8189592361450195
 22
-2.2187116146087646
 32
2.682209014892578e-07
 13
-2.8189592361450195
 23
-2.2187116146087646
 33
2.682209014892578e-07
  0
3DFACE
  8
0
 10
-2.8189592361450195
 20
-2.2187116146087646
 30
2.682209014892578e-07
 11
-3.130847215652466
 21
-2.2187116146087646
 31
3.203749656677246e-07
 12
-3.2867913246154785
 22
0.28564831614494324
 32
3.5762786865234375e-07
 13
-3.2867913246154785
 23
0.28564831614494324
 33
3.5762786865234375e-07
  0
3DFACE
  8
0
 10
-3.2867913246154785
 20
0.28564831614494324
 30
3.5762786865234375e-07
 11
-2.587071418762207
 21
-0.0759616270661354
 31
2.086162567138672e-07
 12
-2.587071180343628
 22
-0.7991716861724854
 32
2.086162567138672e-07
 13
-2.587071180343628
 23
-0.7991716861724854
 33
2.086162567138672e-07
  0
3DFACE
  8
0
 10
-2.8189592361450195
 20
-2.2187116146087646
 30
2.682209014892578e-07
 11
-3.2867913246154785
 21
0.28564831614494324
 31
3.5762786865234375e-07
 12
-2.587071180343628
 22
-0.7991716861724854
 32
2.086162567138672e-07
 13
-2.587071180343628
 23
-0.7991716861724854
 33
2.086162567138672e-07
  0
3DFACE
  8
0
 10
-3.130847215652466
 20
-2.2187116146087646
 30
3.203749656677246e-07
 11
-2.974903106689453
 21
-2.2187116146087646
 31
2.980232238769531e-07
 12
-2.974903106689453
 22
-2.2987115383148193
 32
2.980232238769531e-07
 13
-3.130847215652466
 23
-2.2987115383148193
 33
3.203749656677246e-07
  0
3DFACE
  8
0
 10
-2.8189592361450195
 20
-2.2187116146087646
 30
2.682209014892578e-07
 11
-2.663015365600586
 21
-2.2187116146087646
 31
2.384185791015625e-07
 12
-2.663015365600586
 22
-2.2987115383148193
 32
2.384185791015625e-07
 13
-2.8189592361450195
 23
-2.2987115383148193
 33
2.682209014892578e-07
  0
3DFACE
  8
0
 10
-2.587071418762207
 20
2.0936784744262695
 30
2.086162567138672e-07
 11
-2.5070714950561523
 21
2.0936784744262695
 31
2.0116567611694336e-07
 12
-2.5070714950561523
 22
1.7320683002471924
 32
2.0116567611694336e-07
 13
-2.5070714950561523
 23
1.7320683002471924
 33
2.0116567611694336e-07
  0
3DFACE
  8
0
 10
-2.5070717334747314
 20
2.790008306503296
 30
2.0116567611694336e-07
 11
-2.5070714950561523
 21
2.4552783966064453
 31
2.0116567611694336e-07
 12
-2.587071418762207
 22
2.4552783966064453
 32
2.086162567138672e-07
 13
-2.587071418762207
 23
2.4552783966064453
 33
2.086162567138672e-07
  0
3DFACE
  8
0
 10
-2.587071418762207
 20
2.0936784744262695
 30
2.086162567138672e-07
 11
-2.5070714950561523
 21
1.7320683002471924
 31
2.0116567611694336e-07
 12
-2.587071418762207
 22
1.7320683002471924
 32
2.086162567138672e-07
 13
-2.587071418762207
 23
1.7320683002471924
 33
2.086162567138672e-07
  0
3DFACE
  8
0
 10
-2.5070717334747314
 20
2.790008306503296
 30
2.086162567138672e-07
 11
-2.5070717334747314
 21
2.790008306503296
 31
2.0116567611694336e-07
 12
-2.587071418762207
 22
2.4552783966064453
 32
2.086162567138672e-07
 13
-2.587071418762207
 23
2.4552783966064453
 33
2.086162567138672e-07
  0
3DFACE
  8
0
 10
-2.587071418762207
 20
2.4552783966064453
 30
2.086162567138672e-07
 11
-2.587071418762207
 21
2.0936784744262695
 31
2.086162567138672e-07
 12
-2.587071418762207
 22
1.7320683002471924
 32
2.086162567138672e-07
 13
-2.587071418762207
 23
1.7320683002471924
 33
2.086162567138672e-07
  0
3DFACE
  8
0
 10
-2.587071418762207
 20
1.3704683780670166
 30
2.086162567138672e-07
 11
-2.5070714950561523
 21
1.3704683780670166
 31
2.0116567611694336e-07
 12
-2.5070714950561523
 22
1.008858323097229
 32
2.0116567611694336e-07
 13
-2.5070714950561523
 23
1.008858323097229
 33
2.0116567611694336e-07
  0
3DFACE
  8
0
 10
-2.587071418762207
 20
2.4552783966064453
 30
2.086162567138672e-07
 11
-2.587071418762207
 21
1.7320683002471924
 31
2.086162567138672e-07
 12
-2.587071418762207
 22
1.3704683780670166
 32
2.086162567138672e-07
 13
-2.587071418762207
 23
1.3704683780670166
 33
2.086162567138672e-07
  0
3DFACE
  8
0
 10
-2.663015842437744
 20
2.790008306503296
 30
2.384185791015625e-07
 11
-2.5070717334747314
 21
2.790008306503296
 31
2.086162567138672e-07
 12
-2.587071418762207
 22
2.4552783966064453
 32
2.086162567138672e-07
 13
-2.587071418762207
 23
2.4552783966064453
 33
2.086162567138672e-07
  0
3DFACE
  8
0
 10
-2.9749035835266113
 20
2.790008306503296
 30
2.980232238769531e-07
 11
-2.8189597129821777
 21
2.790008306503296
 31
2.682209014892578e-07
 12
-2.663015842437744
 22
2.790008306503296
 32
2.384185791015625e-07
 13
-2.663015842437744
 23
2.790008306503296
 33
2.384185791015625e-07
  0
3DFACE
  8
0
 10
-3.2867915630340576
 20
2.790008306503296
 30
3.5762786865234375e-07
 11
-3.130847692489624
 21
2.790008306503296
 31
3.203749656677246e-07
 12
-2.9749035835266113
 22
2.790008306503296
 32
2.980232238769531e-07
 13
-2.9749035835266113
 23
2.790008306503296
 33
2.980232238769531e-07
  0
3DFACE
  8
0
 10
-2.5070714950561523
 20
0.285648375749588
 30
2.0116567611694336e-07
 11
-3.2867913246154785
 21
0.28564831614494324
 31
3.5762786865234375e-07
 12
-3.2867915630340576
 22
2.790008306503296
 32
3.5762786865234375e-07
 13
-3.2867915630340576
 23
2.790008306503296
 33
3.5762786865234375e-07
  0
3DFACE
  8
0
 10
-2.587071418762207
 20
0.6472583413124084
 30
2.086162567138672e-07
 11
-2.5070714950561523
 21
0.6472584009170532
 31
2.0116567611694336e-07
 12
-2.5070714950561523
 22
0.285648375749588
 32
2.0116567611694336e-07
 13
-2.5070714950561523
 23
0.285648375749588
 33
2.0116567611694336e-07
  0
3DFACE
  8
0
 10
-2.587071418762207
 20
1.3704683780670166
 30
2.086162567138672e-07
 11
-2.5070714950561523
 21
1.008858323097229
 31
2.0116567611694336e-07
 12
-2.587071418762207
 22
1.008858323097229
 32
2.086162567138672e-07
 13
-2.587071418762207
 23
1.008858323097229
 33
2.086162567138672e-07
  0
3DFACE
  8
0
 10
-2.587071418762207
 20
0.6472583413124084
 30
2.086162567138672e-07
 11
-2.5070714950561523
 21
0.285648375749588
 31
2.0116567611694336e-07
 12
-3.2867915630340576
 22
2.790008306503296
 32
3.5762786865234375e-07
 13
-3.2867915630340576
 23
2.790008306503296
 33
3.5762786865234375e-07
  0
3DFACE
  8
0
 10
-2.587071418762207
 20
1.3704683780670166
 30
2.086162567138672e-07
 11
-2.587071418762207
 21
1.008858323097229
 31
2.086162567138672e-07
 12
-2.587071418762207
 22
0.6472583413124084
 32
2.086162567138672e-07
 13
-2.587071418762207
 23
0.6472583413124084
 33
2.086162567138672e-07
  0
3DFACE
  8
0
 10
-2.663015842437744
 20
2.790008306503296
 30
2.384185791015625e-07
 11
-2.587071418762207
 21
2.4552783966064453
 31
2.086162567138672e-07
 12
-2.587071418762207
 22
1.3704683780670166
 32
2.086162567138672e-07
 13
-2.587071418762207
 23
1.3704683780670166
 33
2.086162567138672e-07
  0
3DFACE
  8
0
 10
-3.2867915630340576
 20
2.790008306503296
 30
3.5762786865234375e-07
 11
-2.9749035835266113
 21
2.790008306503296
 31
2.980232238769531e-07
 12
-2.663015842437744
 22
2.790008306503296
 32
2.384185791015625e-07
 13
-2.663015842437744
 23
2.790008306503296
 33
2.384185791015625e-07
  0
3DFACE
  8
0
 10
-2.587071418762207
 20
1.3704683780670166
 30
2.086162567138672e-07
 11
-2.587071418762207
 21
0.6472583413124084
 31
2.086162567138672e-07
 12
-3.2867915630340576
 22
2.790008306503296
 32
3.5762786865234375e-07
 13
-3.2867915630340576
 23
2.790008306503296
 33
3.5762786865234375e-07
  0
3DFACE
  8
0
 10
-2.587071418762207
 20
1.3704683780670166
 30
2.086162567138672e-07
 11
-3.2867915630340576
 21
2.790008306503296
 31
3.5762786865234375e-07
 12
-2.663015842437744
 22
2.790008306503296
 32
2.384185791015625e-07
 13
-2.663015842437744
 23
2.790008306503296
 33
2.384185791015625e-07
  0
3DFACE
  8
0
 10
-3.130847692489624
 20
2.790008306503296
 30
3.203749656677246e-07
 11
-3.130847692489624
 21
2.8700082302093506
 31
3.203749656677246e-07
 12
-2.9749035835266113
 22
2.8700082302093506
 32
2.980232238769531e-07
 13
-2.9749035835266113
 23
2.790008306503296
 33
2.980232238769531e-07
  0
3DFACE
  8
0
 10
-2.8189597129821777
 20
2.790008306503296
 30
2.682209014892578e-07
 11
-2.8189597129821777
 21
2.8700082302093506
 31
2.682209014892578e-07
 12
-2.663015842437744
 22
2.8700082302093506
 32
2.384185791015625e-07
 13
-2.663015842437744
 23
2.790008306503296
 33
2.384185791015625e-07
  0
ENDSEC
  0
EOF
